<svg width="18" height="24" viewBox="0 0 18 24" fill="none" xmlns="http://www.w3.org/2000/svg">
<path d="M1.8888 7.73403C1.843 7.73308 1.79746 7.74117 1.75479 7.75786C1.71213 7.77455 1.67318 7.79949 1.64018 7.83127C1.60718 7.86304 1.58078 7.90102 1.56249 7.94302C1.5442 7.98503 1.53438 8.03023 1.5336 8.07603V15.2592C1.53438 15.305 1.5442 15.3502 1.56249 15.3922C1.58078 15.4342 1.60718 15.4722 1.64018 15.504C1.67318 15.5358 1.71213 15.5607 1.75479 15.5774C1.79746 15.5941 1.843 15.6022 1.8888 15.6012C1.9346 15.6022 1.98014 15.5941 2.02281 15.5774C2.06547 15.5607 2.10442 15.5358 2.13742 15.504C2.17042 15.4722 2.19683 15.4342 2.21511 15.3922C2.2334 15.3502 2.24322 15.305 2.244 15.2592V8.07603C2.24322 8.03023 2.2334 7.98503 2.21511 7.94302C2.19683 7.90102 2.17042 7.86304 2.13742 7.83127C2.10442 7.79949 2.06547 7.77455 2.02281 7.75786C1.98014 7.74117 1.9346 7.73308 1.8888 7.73403ZM1.9956 6.15243C3.0972 6.15243 3.9912 7.01403 3.9912 8.07603V15.2592C3.9912 16.3212 3.0972 17.1828 1.9956 17.1828C0.894 17.1828 0 16.32 0 15.2592V8.07603C0 7.01403 0.894 6.15243 1.9956 6.15243ZM4.0836 7.95363V17.7096H13.9248V7.95363H4.0824H4.0836ZM2.4408 6.37203H15.564V18.2364C15.564 18.8184 15.0744 19.2912 14.4708 19.2912H3.5352C2.9316 19.2912 2.4432 18.8184 2.4432 18.2364V6.37203H2.4408ZM16.0872 7.71603C16.0415 7.71508 15.9961 7.72313 15.9535 7.73974C15.9109 7.75636 15.872 7.7812 15.839 7.81284C15.806 7.84449 15.7796 7.88233 15.7612 7.92419C15.7429 7.96606 15.7329 8.01113 15.732 8.05683V15.24C15.7328 15.2858 15.7426 15.331 15.7609 15.373C15.7792 15.415 15.8056 15.453 15.8386 15.4848C15.8716 15.5166 15.9105 15.5415 15.9532 15.5582C15.9959 15.5749 16.0414 15.583 16.0872 15.582C16.284 15.582 16.4424 15.3552 16.4424 15.24V8.05683C16.4416 8.01103 16.4318 7.96583 16.4135 7.92382C16.3952 7.88182 16.3688 7.84384 16.3358 7.81207C16.3028 7.78029 16.2639 7.75535 16.2212 7.73866C16.1785 7.72197 16.133 7.71388 16.0872 7.71483V7.71603ZM7.8192 18.246C8.2728 18.246 8.64 18.6 8.64 19.0368V21.8208C8.64 23.1516 7.9248 24 6.648 24C5.3928 24 4.6536 23.1792 4.5792 21.8208V19.0368C4.5792 18.6 4.9464 18.2448 5.4 18.2448C5.8524 18.2448 6.2196 18.6 6.2196 19.0368V21.7788C6.2484 22.314 6.342 22.4184 6.6492 22.4184C6.9348 22.4184 6.9996 22.3416 6.9996 21.8208V19.0368C6.9996 18.6 7.3668 18.2448 7.8204 18.2448L7.8192 18.246ZM13.2696 18.246C13.722 18.246 14.0892 18.6 14.0892 19.0368V21.8208C14.0892 23.1516 13.3728 24 12.0972 24C10.842 24 10.1028 23.1792 10.0284 21.8208V19.0368C10.0284 18.6 10.3956 18.2448 10.8492 18.2448C11.3016 18.2448 11.6688 18.6 11.6688 19.0368V21.7788C11.6976 22.314 11.7912 22.4184 12.0984 22.4184C12.384 22.4184 12.4488 22.3416 12.4488 21.8208V19.0368C12.4488 18.6 12.816 18.2448 13.2696 18.2448V18.246ZM12.1968 0.32403C12.3289 0.153364 12.5216 0.0400863 12.735 0.00768993C12.9483 -0.0247065 13.166 0.0262637 13.3428 0.15003C13.4291 0.20908 13.5025 0.285033 13.5586 0.373291C13.6147 0.46155 13.6523 0.560276 13.6692 0.663491C13.686 0.766707 13.6817 0.872264 13.6565 0.973771C13.6314 1.07528 13.5859 1.17062 13.5228 1.25403L12.7068 2.33763C14.107 3.21548 15.127 4.58658 15.5652 6.18003C15.7056 6.14883 15.8532 6.13203 16.0044 6.13203C17.106 6.13203 18 6.99363 18 8.05563V15.24C18 16.302 17.106 17.1636 16.0044 17.1636C14.9028 17.1636 14.0088 16.302 14.0088 15.24V8.05683C14.0088 7.67523 14.124 7.31883 14.3244 7.01883L14.0808 7.05723C13.6848 4.64163 11.5152 2.83683 8.9496 2.83683C6.2964 2.83683 4.0764 4.76523 3.7872 7.28763L2.1564 7.11363C2.3808 5.15763 3.4872 3.47283 5.0724 2.41923L4.194 1.25523C4.13091 1.17182 4.08541 1.07648 4.06025 0.974971C4.03509 0.873464 4.0308 0.767907 4.04763 0.664691C4.06446 0.561476 4.10206 0.46275 4.15816 0.374491C4.21426 0.286233 4.28769 0.21028 4.374 0.15123C4.5508 0.0274637 4.76845 -0.0235065 4.98182 0.00888993C5.19519 0.0412863 5.38791 0.154564 5.52 0.32523L6.54 1.67763C7.31243 1.39741 8.12792 1.25446 8.9496 1.25523C9.7416 1.25523 10.5036 1.38603 11.214 1.62723L12.1968 0.32403ZM7.3632 4.00443C7.6656 4.00443 7.9104 4.24083 7.9104 4.53243C7.9104 4.82283 7.6656 5.05923 7.3632 5.05923C7.2926 5.0605 7.22244 5.04785 7.15673 5.02201C7.09101 4.99616 7.03104 4.95762 6.98022 4.90859C6.92941 4.85955 6.88875 4.80099 6.86057 4.73624C6.8324 4.6715 6.81725 4.60183 6.816 4.53123C6.816 4.24083 7.0608 4.00443 7.3632 4.00443ZM10.644 4.00443C10.9464 4.00443 11.1912 4.24083 11.1912 4.53243C11.1912 4.82283 10.9464 5.05923 10.644 5.05923C10.5016 5.06148 10.3642 5.00714 10.2618 4.90815C10.1594 4.80917 10.1005 4.67361 10.098 4.53123C10.098 4.24083 10.3428 4.00443 10.644 4.00443Z" fill="#2FA4C9"/>
</svg>
