<svg width="18" height="20" viewBox="0 0 18 20" fill="none" xmlns="http://www.w3.org/2000/svg">
<path d="M14.5172 10.5555C14.5078 8.95703 15.232 7.75234 16.6945 6.86406C15.8766 5.69219 14.6391 5.04766 13.0078 4.92344C11.4633 4.80156 9.77344 5.82344 9.15469 5.82344C8.50078 5.82344 7.00547 4.96563 5.82891 4.96563C3.40078 5.00313 0.820312 6.90156 0.820312 10.7641C0.820312 11.9055 1.02891 13.0844 1.44609 14.2984C2.00391 15.8969 4.01484 19.8133 6.1125 19.75C7.20938 19.7242 7.98516 18.9719 9.4125 18.9719C10.7977 18.9719 11.5148 19.75 12.7383 19.75C14.8547 19.7195 16.6734 16.1594 17.2031 14.5563C14.3648 13.218 14.5172 10.6375 14.5172 10.5555ZM14.2688 16.8133C13.9336 17.2797 13.5961 17.6477 13.2867 17.8844C13.0406 18.0719 12.8508 18.1516 12.7242 18.1562C12.5133 18.1539 12.3094 18.1023 11.9109 17.95C11.8828 17.9383 11.8523 17.9266 11.8125 17.9125L11.7094 17.8727C11.3016 17.7156 11.0578 17.6313 10.7461 17.5492C10.3102 17.4367 9.87656 17.3758 9.4125 17.3758C8.93906 17.3758 8.49375 17.4344 8.05078 17.5445C7.725 17.6266 7.45078 17.718 7.05 17.868C7.03359 17.875 6.86016 17.9406 6.81094 17.9594C6.72891 17.9898 6.66563 18.0133 6.60703 18.0344C6.36328 18.1188 6.20859 18.1539 6.07031 18.1562C6.05391 18.1562 6.03984 18.1539 6.02813 18.1516C6.00234 18.1469 5.96953 18.1375 5.93203 18.1211C5.82656 18.0789 5.7 18.0016 5.55703 17.8914C5.22891 17.6359 4.86797 17.2352 4.5 16.7219C3.85547 15.8172 3.24609 14.6172 2.95312 13.7758C2.59219 12.7258 2.41406 11.7203 2.41406 10.7617C2.41406 9.35078 2.83125 8.27734 3.54844 7.54844C4.16484 6.925 4.99453 6.57578 5.84063 6.55703C5.97891 6.55938 6.18047 6.59219 6.43594 6.6625C6.6375 6.71641 6.85781 6.78906 7.15547 6.89453C7.24453 6.92734 7.55156 7.0375 7.58906 7.05156C7.76953 7.11719 7.90547 7.16406 8.03906 7.20625C8.46563 7.34219 8.79609 7.41719 9.15469 7.41719C9.51797 7.41719 9.82969 7.33984 10.2727 7.1875C10.4391 7.13125 11.0438 6.90625 11.1516 6.86875C11.7516 6.65547 12.1945 6.54063 12.5766 6.5125C12.6891 6.50313 12.7898 6.50313 12.8859 6.51016C13.418 6.55234 13.8727 6.65781 14.2594 6.83359C13.3781 7.85078 12.9234 9.09531 12.9258 10.5461C12.9188 10.8906 12.9469 11.2891 13.0453 11.7602C13.1953 12.475 13.4813 13.1828 13.9336 13.8461C14.2781 14.35 14.7047 14.8047 15.2156 15.2008C14.9461 15.7563 14.6156 16.3305 14.2688 16.8133ZM12.0539 3.40703C13.2422 1.99609 13.1344 0.711719 13.0992 0.25C12.0492 0.310938 10.8352 0.964844 10.1438 1.76875C9.38203 2.63125 8.93438 3.69766 9.03047 4.9C10.1648 4.98672 11.2008 4.40313 12.0539 3.40703Z" fill="#2FA4C9"/>
</svg>
