<svg width="24" height="24" viewBox="0 0 24 24" fill="none" xmlns="http://www.w3.org/2000/svg">
<path d="M12.0001 7C6.48012 7 2.00012 9.24 2.00012 12C2.00012 14.24 4.94012 16.13 9.00012 16.77V18.79C9.00012 19.24 9.54012 19.46 9.85012 19.14L12.6401 16.35C12.8401 16.15 12.8401 15.84 12.6401 15.64L9.85012 12.85C9.77963 12.7809 9.69025 12.7342 9.59327 12.7158C9.49628 12.6974 9.39602 12.7082 9.30512 12.7467C9.21422 12.7852 9.13675 12.8497 9.08247 12.9322C9.0282 13.0146 8.99954 13.1113 9.00012 13.21V14.73C5.85012 14.17 4.00012 12.83 4.00012 12C4.00012 10.94 7.04012 9 12.0001 9C16.9601 9 20.0001 10.94 20.0001 12C20.0001 12.66 18.8001 13.68 16.6801 14.34C16.2701 14.47 16.0001 14.85 16.0001 15.28C16.0001 15.95 16.6501 16.44 17.2801 16.24C20.1101 15.36 22.0001 13.79 22.0001 12C22.0001 9.24 17.5201 7 12.0001 7Z" fill="white"/>
</svg>
