<svg width="24" height="24" viewBox="0 0 24 24" fill="none" xmlns="http://www.w3.org/2000/svg">
<path d="M3.00012 4C3.00012 3.45 3.45012 3 4.00012 3H6.00012V1H4.00012C2.34012 1 1.00012 2.34 1.00012 4V6H3.00012V4ZM3.00012 20V18H1.00012V20C1.00012 21.66 2.34012 23 4.00012 23H6.00012V21H4.00012C3.45012 21 3.00012 20.55 3.00012 20ZM20.0001 1H18.0001V3H20.0001C20.5501 3 21.0001 3.45 21.0001 4V6H23.0001V4C23.0001 2.34 21.6601 1 20.0001 1ZM21.0001 20C21.0001 20.55 20.5501 21 20.0001 21H18.0001V23H20.0001C21.6601 23 23.0001 21.66 23.0001 20V18H21.0001V20ZM19.0001 14.87V9.13C19.0001 8.41 18.6201 7.75 18.0001 7.4L13.0001 4.52C12.6901 4.34 12.3501 4.25 12.0001 4.25C11.6501 4.25 11.3101 4.34 11.0001 4.52L6.00012 7.39C5.38012 7.75 5.00012 8.41 5.00012 9.13V14.87C5.00012 15.59 5.38012 16.25 6.00012 16.6L11.0001 19.48C11.3101 19.66 11.6501 19.75 12.0001 19.75C12.3501 19.75 12.6901 19.66 13.0001 19.48L18.0001 16.6C18.6201 16.25 19.0001 15.59 19.0001 14.87ZM11.0001 17.17L7.00012 14.87V10.24L11.0001 12.57V17.17ZM12.0001 10.84L8.04012 8.53L12.0001 6.25L15.9601 8.53L12.0001 10.84ZM17.0001 14.87L13.0001 17.17V12.57L17.0001 10.24V14.87Z" fill="white"/>
</svg>
