<svg width="24" height="24" viewBox="0 0 24 24" fill="none" xmlns="http://www.w3.org/2000/svg">
<path d="M21.0101 4C20.4501 4 17.4001 5.5 12.0001 5.5C6.69012 5.5 3.51012 4.01 2.99012 4.01C2.46012 4.01 2.00012 4.45 2.00012 5.02V19C2.00012 19.57 2.46012 20 2.99012 20C3.56012 20 6.54012 18.5 12.0001 18.5C17.4201 18.5 20.4401 20 21.0101 20C21.5401 20 22.0001 19.57 22.0001 19V5C22.0001 4.43 21.5401 4 21.0101 4ZM20.0001 17.63C17.9901 17.04 15.3801 16.5 12.0001 16.5C8.61012 16.5 6.01012 17.04 4.00012 17.63V6.38C6.58012 7.11 9.32012 7.5 12.0001 7.5C15.3801 7.5 17.9901 6.96 20.0001 6.37V17.63Z" fill="white"/>
<path d="M9.1701 10.99L5.4801 15.41C7.4801 15.15 9.6601 15 12.0001 15C14.3001 15 16.5201 15.15 18.5101 15.4L14.0001 10L11.1701 13.39L9.1701 10.99Z" fill="white"/>
</svg>
