<?xml version="1.0" standalone="no"?>
<!DOCTYPE svg PUBLIC "-//W3C//DTD SVG 20010904//EN"
 "http://www.w3.org/TR/2001/REC-SVG-20010904/DTD/svg10.dtd">
<svg version="1.0" xmlns="http://www.w3.org/2000/svg"
 width="402.000000pt" height="402.000000pt" viewBox="0 0 402.000000 402.000000"
 preserveAspectRatio="xMidYMid meet">
<metadata>
Created by potrace 1.14, written by Peter Selinger 2001-2017
</metadata>
<g transform="translate(0.000000,402.000000) scale(0.100000,-0.100000)"
fill="#000000" stroke="none">
<path d="M935 3336 c-122 -29 -229 -113 -254 -197 -19 -63 -19 -905 0 -969 17
-58 86 -128 160 -163 87 -41 158 -48 458 -45 l275 3 9 35 c10 41 31 66 72 88
25 14 77 16 340 17 171 0 327 -3 347 -8 44 -11 75 -42 93 -94 l13 -38 294 -2
c303 -2 338 1 432 41 61 26 124 83 152 138 l25 49 1 462 c1 460 1 462 -22 510
-38 81 -124 141 -245 173 -70 19 -2074 19 -2150 0z"/>
<path d="M282 3041 c-18 -12 -41 -35 -52 -53 -19 -31 -20 -51 -20 -361 0 -361
1 -365 62 -408 43 -31 123 -31 166 -1 60 43 62 58 62 409 0 347 -2 363 -60
405 -40 29 -118 33 -158 9z"/>
<path d="M3604 3046 c-17 -8 -42 -29 -55 -47 l-24 -34 0 -340 c0 -318 1 -342
19 -368 56 -83 187 -82 243 2 23 34 23 37 23 366 0 329 0 332 -23 366 -41 61
-116 84 -183 55z"/>
<path d="M3505 1508 c-310 -36 -477 -335 -341 -612 32 -66 115 -145 189 -179
187 -88 427 -47 560 96 165 178 132 479 -68 617 -93 64 -217 93 -340 78z m180
-216 c46 -27 92 -103 100 -165 13 -106 -32 -199 -118 -242 -89 -44 -183 -30
-251 38 -106 107 -82 307 46 373 68 35 158 33 223 -4z"/>
<path d="M0 1093 c0 -377 1 -403 18 -404 9 -1 60 -2 112 -2 l95 -1 3 405 2
405 -115 1 -115 0 0 -404z"/>
<path d="M316 1413 c1 -46 5 -87 9 -91 3 -4 59 -7 123 -7 l117 0 0 -313 c0
-201 4 -312 10 -313 38 -4 208 -3 214 1 5 3 8 138 9 300 0 162 1 302 1 310 1
13 20 15 114 14 61 0 117 1 122 3 6 2 10 41 10 91 l0 87 -365 1 -365 1 1 -84z"/>
<path d="M1455 1487 c-2 -7 -3 -189 -2 -406 l2 -395 113 0 c68 -1 112 3 113 9
0 6 1 54 1 108 l1 97 96 0 c123 -1 174 7 237 36 110 52 166 137 167 258 2 132
-69 231 -200 278 -52 19 -82 21 -291 24 -170 1 -234 -1 -237 -9z m433 -186
c90 -37 84 -182 -8 -210 -21 -6 -73 -11 -117 -11 l-80 0 0 119 1 118 86 -2
c48 0 101 -7 118 -14z"/>
<path d="M2299 1462 c0 -21 -1 -202 -2 -404 -2 -344 -1 -368 16 -369 22 -1
171 -1 196 0 16 1 18 11 19 102 0 55 2 102 4 104 5 5 31 7 78 6 l45 -1 73
-107 72 -107 120 0 c88 -1 119 2 116 11 -3 6 -39 61 -80 122 -42 61 -76 114
-76 118 0 5 16 18 34 30 164 106 150 388 -24 478 -86 44 -108 47 -352 50
l-238 3 -1 -36z m408 -150 c13 -1 37 -15 54 -30 25 -22 32 -38 35 -72 6 -95
-43 -130 -181 -130 l-85 0 -1 38 c-1 37 -1 153 0 183 1 13 14 15 79 14 42 -1
87 -3 99 -3z"/>
</g>
</svg>
