<svg width="100" height="100" viewBox="0 0 100 100" fill="none" xmlns="http://www.w3.org/2000/svg">
<path d="M9.39355 99.721V84.4119H16.5636C19.899 84.4119 21.7165 86.6644 21.7165 89.3554C21.7165 92.0265 19.879 94.299 16.5636 94.299H12.669V99.7409H9.39355V99.721ZM18.3811 89.3355C18.3811 88.0597 17.4224 87.2624 16.1242 87.2624H12.669V91.3887H16.1442C17.4224 91.4086 18.3811 90.6113 18.3811 89.3355Z" fill="#828282"/>
<path d="M22.9531 94.1594C22.9531 91.0098 25.1501 88.3586 28.805 88.3586C32.4799 88.3586 34.6968 91.0298 34.6968 94.1594C34.6968 97.3289 32.4999 100 28.805 100C25.17 100 22.9531 97.3289 22.9531 94.1594ZM31.661 94.1594C31.661 92.4451 30.6225 90.95 28.805 90.95C26.9875 90.95 25.9689 92.4451 25.9689 94.1594C25.9689 95.9136 26.9875 97.3887 28.805 97.3887C30.6225 97.4086 31.661 95.9136 31.661 94.1594Z" fill="#828282"/>
<path d="M36.6138 94.1593C36.6138 90.7706 39.0704 88.3586 42.5056 88.3586C44.7824 88.3586 46.1605 89.3553 46.8995 90.352L44.9821 92.146C44.4629 91.3686 43.644 90.95 42.6454 90.95C40.8679 90.95 39.6296 92.2457 39.6296 94.1593C39.6296 96.0929 40.8679 97.3886 42.6454 97.3886C43.664 97.3886 44.4629 96.9301 44.9821 96.1926L46.8995 97.9667C46.1605 99.0032 44.7824 99.98 42.5056 99.98C39.0704 99.9999 36.6138 97.5879 36.6138 94.1593Z" fill="#828282"/>
<path d="M51.7553 99.7205V91.1889H48.6396V88.6373H57.7869V91.1889H54.6912V99.7205H51.7553Z" fill="#828282"/>
<path d="M58.9233 94.1594C58.9233 90.95 61.2801 88.3586 64.6753 88.3586C67.9907 88.3586 70.2276 90.8304 70.2276 94.4584V95.0963H61.9791C62.1588 96.4916 63.2973 97.6677 65.1746 97.6677C66.1133 97.6677 67.4315 97.2491 68.1305 96.5714L69.4087 98.4451C68.3103 99.4617 66.5527 99.98 64.8351 99.98C61.4598 99.9999 58.9233 97.7275 58.9233 94.1594ZM64.6554 90.6709C62.8379 90.6709 62.059 92.0265 61.9192 93.1228H67.3916C67.3316 92.0863 66.5927 90.6709 64.6554 90.6709Z" fill="#828282"/>
<path d="M79.2191 99.7205L76.6826 95.973L74.1261 99.7205H70.8906L74.8252 94.0394L71.1303 88.6373H74.3858L76.6826 92.046L78.9594 88.6373H82.2149L78.5001 94.0394L82.4745 99.7205H79.2191Z" fill="#828282"/>
<path d="M72.6645 34.3179V9.81919H48.2783L57.7652 0.330688H82.2112V12.2711V24.7696L72.6645 34.3179Z" fill="#828282"/>
<path d="M82.2112 73.0696H57.7652L48.2783 63.5811H72.6645V39.1024L82.2112 48.6706V73.0696Z" fill="#828282"/>
<path d="M9.43262 24.7696V12.2711V0.330688H33.8787L43.3655 9.81919H18.9993V34.3179L9.43262 24.7696Z" fill="#828282"/>
<path d="M9.43262 48.6706L18.9993 39.1024V63.5811H43.3655L33.8787 73.0696H9.43262V48.6706Z" fill="#828282"/>
<path d="M85.866 1.08734V3.9585H85.4465V1.08734H84.5278V0.708496H86.7847V1.08734H85.866ZM90.0801 3.9585V1.26677L88.9617 3.9585H88.8418L87.7234 1.26677V3.9585H87.304V0.708496H87.9431L88.8818 3.08122L89.8205 0.708496H90.4596V3.9585H90.0801Z" fill="#828282"/>
</svg>
