<svg width="70" height="47" viewBox="0 0 70 47" fill="none" xmlns="http://www.w3.org/2000/svg">
<path d="M65.2677 19.2678C65.7365 18.7989 65.9999 18.163 65.9999 17.5V7.5C65.9999 6.83696 65.7365 6.20107 65.2677 5.73223C64.7988 5.26339 64.1629 5 63.4999 5C62.8369 5 62.201 5.26339 61.7321 5.73223C61.2633 6.20107 60.9999 6.83696 60.9999 7.5V17.5C60.9999 18.163 61.2633 18.7989 61.7321 19.2678C62.201 19.7366 62.8369 20 63.4999 20C64.1629 20 64.7988 19.7366 65.2677 19.2678Z" fill="white"/>
<path d="M0.399902 32H4.3599V46H0.399902V32Z" fill="white"/>
<path d="M10.1572 35.14H5.85725V32H18.3972V35.14H14.1172V46H10.1572V35.14Z" fill="white"/>
<path d="M31.7999 32C33.0666 32 34.1666 32.2133 35.0999 32.64C36.0332 33.0533 36.7532 33.6533 37.2599 34.44C37.7666 35.2133 38.0199 36.1267 38.0199 37.18C38.0199 38.2333 37.7666 39.1467 37.2599 39.92C36.7532 40.6933 36.0332 41.2933 35.0999 41.72C34.1666 42.1333 33.0666 42.34 31.7999 42.34H29.3599V46H25.3999V32H31.7999ZM31.5599 39.22C32.3732 39.22 32.9866 39.0467 33.3999 38.7C33.8132 38.34 34.0199 37.8333 34.0199 37.18C34.0199 36.5267 33.8132 36.02 33.3999 35.66C32.9866 35.3 32.3732 35.12 31.5599 35.12H29.3599V39.22H31.5599Z" fill="white"/>
<path d="M46.0707 42.28H43.9107V46H39.9507V32H46.3507C47.6174 32 48.7174 32.2133 49.6507 32.64C50.584 33.0533 51.304 33.6533 51.8107 34.44C52.3174 35.2133 52.5707 36.1267 52.5707 37.18C52.5707 38.1933 52.3307 39.08 51.8507 39.84C51.384 40.5867 50.7107 41.1733 49.8307 41.6L52.8507 46H48.6107L46.0707 42.28ZM48.5707 37.18C48.5707 36.5267 48.364 36.02 47.9507 35.66C47.5373 35.3 46.924 35.12 46.1107 35.12H43.9107V39.22H46.1107C46.924 39.22 47.5373 39.0467 47.9507 38.7C48.364 38.34 48.5707 37.8333 48.5707 37.18Z" fill="white"/>
<path d="M61.8154 46.28C60.3354 46.28 59.002 45.9667 57.8154 45.34C56.642 44.7133 55.7154 43.8467 55.0354 42.74C54.3687 41.6333 54.0354 40.3867 54.0354 39C54.0354 37.6133 54.3687 36.3667 55.0354 35.26C55.7154 34.1533 56.642 33.2867 57.8154 32.66C59.002 32.0333 60.3354 31.72 61.8154 31.72C63.2954 31.72 64.622 32.0333 65.7954 32.66C66.982 33.2867 67.9087 34.1533 68.5754 35.26C69.2554 36.3667 69.5954 37.6133 69.5954 39C69.5954 40.3867 69.2554 41.6333 68.5754 42.74C67.9087 43.8467 66.982 44.7133 65.7954 45.34C64.622 45.9667 63.2954 46.28 61.8154 46.28ZM61.8154 43C62.522 43 63.162 42.8333 63.7354 42.5C64.3087 42.1667 64.762 41.7 65.0954 41.1C65.4287 40.4867 65.5954 39.7867 65.5954 39C65.5954 38.2133 65.4287 37.52 65.0954 36.92C64.762 36.3067 64.3087 35.8333 63.7354 35.5C63.162 35.1667 62.522 35 61.8154 35C61.1087 35 60.4687 35.1667 59.8954 35.5C59.322 35.8333 58.8687 36.3067 58.5354 36.92C58.202 37.52 58.0354 38.2133 58.0354 39C58.0354 39.7867 58.202 40.4867 58.5354 41.1C58.8687 41.7 59.322 42.1667 59.8954 42.5C60.4687 42.8333 61.1087 43 61.8154 43Z" fill="white"/>
<path d="M42.4999 24H51.4999C53.2503 24 54.9291 23.4943 56.1668 22.5941C57.4045 21.6939 58.0999 20.473 58.0999 19.2V4.8C58.0999 3.52696 57.4045 2.30606 56.1668 1.40589C54.9291 0.505713 53.2503 0 51.4999 0H18.4999C16.7495 0 15.0707 0.505713 13.833 1.40589C12.5953 2.30606 11.8999 3.52696 11.8999 4.8V19.2C11.8999 20.473 12.5953 21.6939 13.833 22.5941C15.0707 23.4943 16.7495 24 18.4999 24H27.4999C27.4999 23.337 27.7633 22.7011 28.2321 22.2322C28.701 21.7634 29.3369 21.5 29.9999 21.5H39.9999C40.6629 21.5 41.2988 21.7634 41.7677 22.2322C42.2365 22.7011 42.4999 23.337 42.4999 24Z" fill="white"/>
<path d="M8.26767 19.2678C8.73651 18.7989 8.9999 18.163 8.9999 17.5V7.5C8.9999 6.83696 8.73651 6.20107 8.26767 5.73223C7.79883 5.26339 7.16294 5 6.4999 5C5.83686 5 5.20098 5.26339 4.73214 5.73223C4.26329 6.20107 3.9999 6.83696 3.9999 7.5V17.5C3.9999 18.163 4.26329 18.7989 4.73214 19.2678C5.20098 19.7366 5.83686 20 6.4999 20C7.16294 20 7.79883 19.7366 8.26767 19.2678Z" fill="white"/>
</svg>
