<svg width="36" height="36" viewBox="0 0 36 36" fill="none" xmlns="http://www.w3.org/2000/svg">
<path d="M17.9997 9.18721C13.1228 9.18721 9.18682 13.1232 9.18682 18.0001C9.18682 22.8771 13.1228 26.813 17.9997 26.813C22.8767 26.813 26.8126 22.8771 26.8126 18.0001C26.8126 13.1232 22.8767 9.18721 17.9997 9.18721ZM17.9997 23.7278C14.8458 23.7278 12.272 21.154 12.272 18.0001C12.272 14.8462 14.8458 12.2724 17.9997 12.2724C21.1536 12.2724 23.7274 14.8462 23.7274 18.0001C23.7274 21.154 21.1536 23.7278 17.9997 23.7278ZM27.1735 6.77237C26.0349 6.77237 25.1153 7.6919 25.1153 8.83057C25.1153 9.96925 26.0349 10.8888 27.1735 10.8888C28.3122 10.8888 29.2317 9.97354 29.2317 8.83057C29.2321 8.56019 29.1791 8.2924 29.0758 8.04253C28.9725 7.79267 28.8209 7.56564 28.6297 7.37445C28.4385 7.18326 28.2115 7.03167 27.9616 6.92835C27.7117 6.82504 27.4439 6.77203 27.1735 6.77237ZM35.1786 18.0001C35.1786 15.6282 35.2001 13.2778 35.0669 10.9103C34.9337 8.16026 34.3064 5.71964 32.2954 3.7087C30.2802 1.69347 27.8439 1.07042 25.0939 0.937216C22.722 0.804012 20.3716 0.825497 18.004 0.825497C15.6321 0.825497 13.2817 0.804012 10.9142 0.937216C8.16417 1.07042 5.72354 1.69776 3.71261 3.7087C1.69737 5.72393 1.07432 8.16026 0.941122 10.9103C0.807919 13.2821 0.829403 15.6325 0.829403 18.0001C0.829403 20.3677 0.807919 22.7224 0.941122 25.0899C1.07432 27.8399 1.70167 30.2806 3.71261 32.2915C5.72784 34.3067 8.16417 34.9298 10.9142 35.063C13.286 35.1962 15.6364 35.1747 18.004 35.1747C20.3759 35.1747 22.7263 35.1962 25.0939 35.063C27.8439 34.9298 30.2845 34.3024 32.2954 32.2915C34.3107 30.2763 34.9337 27.8399 35.0669 25.0899C35.2044 22.7224 35.1786 20.372 35.1786 18.0001ZM31.3974 28.1321C31.0837 28.9142 30.7056 29.4985 30.0997 30.1001C29.4939 30.706 28.9138 31.0841 28.1317 31.3978C25.8716 32.2958 20.5048 32.0939 17.9997 32.0939C15.4946 32.0939 10.1235 32.2958 7.86339 31.4021C7.08136 31.0884 6.49698 30.7103 5.89542 30.1044C5.28956 29.4985 4.91143 28.9185 4.59776 28.1364C3.70401 25.872 3.90597 20.5052 3.90597 18.0001C3.90597 15.495 3.70401 10.1239 4.59776 7.86378C4.91143 7.08175 5.28956 6.49737 5.89542 5.89581C6.50128 5.29425 7.08136 4.91182 7.86339 4.59815C10.1235 3.7044 15.4946 3.90636 17.9997 3.90636C20.5048 3.90636 25.8759 3.7044 28.136 4.59815C28.9181 4.91182 29.5025 5.28995 30.104 5.89581C30.7099 6.50167 31.088 7.08175 31.4017 7.86378C32.2954 10.1239 32.0935 15.495 32.0935 18.0001C32.0935 20.5052 32.2954 25.872 31.3974 28.1321Z" fill="white"/>
</svg>
