<svg width="38" height="22" viewBox="0 0 38 22" fill="none" xmlns="http://www.w3.org/2000/svg">
<path d="M36.5628 1.56751C36.8195 0.715011 36.5628 0.0898438 35.3491 0.0898438H31.3286C30.3056 0.0898438 29.8381 0.630678 29.5815 1.22468C29.5815 1.22468 27.5373 6.20951 24.6406 9.44168C23.7056 10.3822 23.2785 10.6792 22.7688 10.6792C22.514 10.6792 22.1436 10.3822 22.1436 9.52968V1.56751C22.1436 0.544511 21.8485 0.0898438 20.996 0.0898438H14.6783C14.0403 0.0898438 13.6553 0.562844 13.6553 1.01384C13.6553 1.98184 15.1036 2.20551 15.2521 4.93351V10.8515C15.2521 12.1477 15.0193 12.3842 14.506 12.3842C13.1438 12.3842 9.82913 7.38101 7.86197 1.65368C7.4788 0.540844 7.09197 0.0916778 6.0653 0.0916778H2.04664C0.897136 0.0916778 0.667969 0.632511 0.667969 1.22651C0.667969 2.29351 2.03014 7.57351 7.01313 14.5567C10.3351 19.3252 15.012 21.9102 19.2726 21.9102C21.8265 21.9102 22.1418 21.3363 22.1418 20.3463V16.742C22.1418 15.5943 22.3856 15.3633 23.1941 15.3633C23.7881 15.3633 24.8111 15.664 27.1963 17.9612C29.9206 20.6855 30.3716 21.9083 31.9025 21.9083H35.9211C37.0688 21.9083 37.6426 21.3345 37.3126 20.2015C36.9515 19.074 35.6498 17.4332 33.9228 15.4917C32.9841 14.3843 31.5816 13.1927 31.1545 12.5968C30.5586 11.8287 30.731 11.4895 31.1545 10.8075C31.1563 10.8093 36.0531 3.91234 36.5628 1.56751Z" fill="white"/>
</svg>
