<svg width="38" height="26" viewBox="0 0 38 26" fill="none" xmlns="http://www.w3.org/2000/svg">
<path d="M36.5868 4.20584C36.378 3.43108 35.9699 2.72451 35.4031 2.15648C34.8364 1.58845 34.1307 1.17875 33.3565 0.968172C30.4855 0.179839 18.9996 0.167006 18.9996 0.167006C18.9996 0.167006 7.51563 0.154172 4.64279 0.907672C3.86899 1.12794 3.1648 1.54343 2.59783 2.11425C2.03086 2.68507 1.62015 3.39206 1.40513 4.16734C0.647961 7.03834 0.640628 12.993 0.640628 12.993C0.640628 12.993 0.633294 18.977 1.38496 21.8187C1.80663 23.3898 3.04413 24.631 4.61713 25.0545C7.51746 25.8428 18.9721 25.8557 18.9721 25.8557C18.9721 25.8557 30.458 25.8685 33.329 25.1168C34.1035 24.9066 34.8098 24.4979 35.378 23.931C35.9461 23.3641 36.3565 22.6588 36.5685 21.8847C37.3275 19.0155 37.333 13.0627 37.333 13.0627C37.333 13.0627 37.3696 7.07684 36.5868 4.20584V4.20584ZM15.3256 18.5095L15.3348 7.50951L24.881 13.0187L15.3256 18.5095V18.5095Z" fill="white"/>
</svg>
