<svg width="100" height="100" viewBox="0 0 100 100" fill="none" xmlns="http://www.w3.org/2000/svg">
<path fill-rule="evenodd" clip-rule="evenodd" d="M22.3362 93.2562C24.0738 93.2562 25.7914 93.2562 27.529 93.2562C27.7487 93.2562 27.9684 93.2562 28.1881 93.2562C28.1881 93.7933 28.1881 94.3304 28.1881 94.8874C26.2508 94.8874 24.2935 94.8874 22.3562 94.8874C22.3362 94.3503 22.3362 93.7933 22.3362 93.2562ZM65.4763 86.3334C65.4763 88.3028 65.4763 90.2921 65.4763 92.2615C66.3151 92.2615 67.154 92.2615 68.0128 92.2615C68.592 92.2615 69.1712 92.2416 69.7304 92.0626C70.2696 91.9035 70.7889 91.5852 71.1085 91.0878C71.448 90.5706 71.5678 89.9539 71.5878 89.3373C71.5878 88.7405 71.4879 88.1238 71.1684 87.6066C70.8488 87.0694 70.3096 86.7313 69.7304 86.5522C69.1312 86.3533 68.5121 86.3135 67.8929 86.3135C67.0741 86.3135 66.2752 86.3135 65.4763 86.3334ZM63.3992 84.543C64.997 84.543 66.5947 84.543 68.2125 84.543C68.8316 84.543 69.4707 84.5629 70.0899 84.6823C71.1484 84.8812 72.2069 85.3586 72.906 86.2339C73.625 87.1291 73.8447 88.3227 73.7848 89.4566C73.7448 90.491 73.5051 91.5653 72.8261 92.3809C72.2269 93.1368 71.3282 93.6143 70.3895 93.8331C69.8502 93.9723 69.311 94.0121 68.7518 94.032C67.6533 94.032 66.5548 94.032 65.4563 94.032C65.4563 95.8423 65.4563 97.6525 65.4563 99.4628C64.7773 99.4628 64.0782 99.4628 63.3992 99.4628C63.3992 94.4896 63.3992 89.5163 63.3992 84.543ZM12.5697 86.3135C12.5697 88.3028 12.5697 90.2722 12.5697 92.2615C13.5284 92.2615 14.4671 92.2615 15.4258 92.2615C16.2247 92.2416 17.0635 92.1223 17.7026 91.625C18.2618 91.2072 18.5614 90.5109 18.6213 89.8346C18.6813 89.2179 18.6613 88.5614 18.4216 87.9845C18.2019 87.4275 17.7426 86.97 17.1833 86.7114C16.3844 86.3533 15.5057 86.3135 14.6469 86.3334C13.9678 86.3135 13.2688 86.3135 12.5697 86.3135ZM10.4926 84.543C11.8108 84.543 13.129 84.543 14.4272 84.543C15.266 84.5629 16.1048 84.5032 16.9237 84.6425C17.8424 84.7817 18.7611 85.1199 19.4801 85.7366C20.0793 86.2339 20.4788 86.9302 20.6785 87.6861C20.8982 88.5017 20.8982 89.3571 20.7983 90.1728C20.6785 90.9884 20.3989 91.7841 19.8796 92.4207C19.4402 92.9777 18.8211 93.3755 18.162 93.6342C17.423 93.9127 16.6241 94.032 15.8252 94.0519C14.7267 94.0519 13.6483 94.0519 12.5498 94.0519C12.5498 95.8622 12.5498 97.6725 12.5498 99.4827C11.8507 99.4827 11.1717 99.4827 10.4727 99.4827C10.4926 94.4896 10.4926 89.5163 10.4926 84.543ZM76.3412 84.543C77.2999 84.543 78.2386 84.543 79.1972 84.543C80.4355 87.6066 81.6538 90.6701 82.8921 93.7336C82.972 93.6342 82.992 93.5347 83.0319 93.4153C84.2103 90.4513 85.3886 87.5071 86.567 84.543C87.5057 84.543 88.4444 84.543 89.4031 84.543C89.4031 89.5163 89.4031 94.4896 89.4031 99.4628C88.724 99.4628 88.025 99.4628 87.3459 99.4628C87.3459 95.3648 87.3459 91.2868 87.3459 87.1888C86.0877 90.3518 84.8294 93.4949 83.5712 96.6579C83.1118 96.6579 82.6524 96.6579 82.1931 96.6579C80.9348 93.5148 79.6766 90.3916 78.4183 87.2485C78.3983 91.3266 78.4183 95.3847 78.4183 99.4628C77.7393 99.4628 77.0402 99.4628 76.3612 99.4628C76.3412 94.4896 76.3412 89.5163 76.3412 84.543ZM51.4757 93.6342C51.9151 93.654 52.3545 93.6342 52.7739 93.6342C54.0521 93.6342 55.3503 93.6342 56.6286 93.6342C55.7698 91.4658 54.891 89.2975 54.0522 87.149C53.1933 89.2975 52.3345 91.4658 51.4757 93.6342ZM53.1135 84.543C53.7326 84.5231 54.3517 84.543 54.9709 84.543C56.6885 88.641 58.4061 92.7589 60.1237 96.8568C60.4832 97.7321 60.8627 98.5875 61.2022 99.4628C60.4433 99.4628 59.6843 99.4628 58.9254 99.4628C58.446 98.1101 57.9467 96.7574 57.4474 95.4046C55.1706 95.4046 52.9137 95.4046 50.6369 95.4046C50.1576 96.7574 49.6583 98.1101 49.1589 99.4429C48.4 99.4429 47.641 99.4429 46.8821 99.4429C47.661 97.5332 48.4799 95.6434 49.2588 93.7336C50.3173 91.1873 51.3958 88.641 52.4544 86.0947C52.6741 85.5974 52.9137 85.0801 53.1135 84.543ZM38.6336 87.7458C38.6336 90.6701 38.6336 93.5944 38.6336 96.5385C39.2128 96.5186 39.792 96.459 40.3711 96.3396C41.0302 96.2004 41.7093 95.9616 42.2086 95.5041C42.668 95.0864 42.9675 94.5293 43.1273 93.9325C43.327 93.1368 43.367 92.3212 43.327 91.5056C43.2871 90.7298 43.1473 89.9539 42.7478 89.2776C42.4283 88.7405 41.929 88.3227 41.3498 88.084C40.471 87.7657 39.5323 87.7458 38.6336 87.7458ZM34.3994 87.9447C33.7803 88.1039 33.1811 88.4222 32.7617 88.9195C32.2824 89.4566 32.0427 90.1728 31.9428 90.8889C31.823 91.6846 31.843 92.4804 31.9428 93.2761C32.0427 93.9922 32.2624 94.7482 32.7417 95.3052C33.1811 95.8224 33.8202 96.1208 34.4793 96.2799C35.1584 96.459 35.8574 96.5187 36.5564 96.5584C36.5564 93.6342 36.5564 90.69 36.5564 87.7657C35.8374 87.7259 35.0985 87.7657 34.3994 87.9447ZM36.5564 84.543C37.2555 84.543 37.9345 84.543 38.6336 84.543C38.6336 85.0602 38.6336 85.5775 38.6336 86.0947C39.6322 86.0748 40.6308 86.0748 41.6094 86.3135C42.4283 86.5124 43.2272 86.8506 43.8663 87.4275C44.765 88.2033 45.2643 89.3571 45.4441 90.5109C45.5639 91.2868 45.5839 92.0825 45.524 92.8782C45.4441 93.7734 45.2643 94.6686 44.8449 95.4643C44.5653 96.0213 44.1459 96.4988 43.6666 96.8767C42.7678 97.573 41.6494 97.9112 40.5309 98.0703C39.9118 98.1499 39.2727 98.1897 38.6535 98.1897C38.6535 98.7865 38.6535 99.4031 38.6535 99.9999C37.9545 99.9999 37.2754 99.9999 36.5764 99.9999C36.5764 99.4031 36.5764 98.7865 36.5764 98.1897C35.7576 98.1897 34.9187 98.13 34.1198 97.9509C32.9814 97.7321 31.843 97.2547 31.0441 96.3993C30.5847 95.902 30.2452 95.2853 30.0255 94.6487C29.7459 93.8331 29.666 92.9777 29.646 92.1223C29.646 91.247 29.7259 90.3518 30.0055 89.5163C30.2652 88.7405 30.6846 88.0044 31.3037 87.4673C31.843 86.97 32.522 86.6318 33.2211 86.413C34.2996 86.0947 35.438 86.035 36.5564 86.0947C36.5764 85.5775 36.5564 85.0602 36.5564 84.543Z" fill="#828282"/>
<path fill-rule="evenodd" clip-rule="evenodd" d="M89.3822 0.53418C81.8926 0.53418 74.383 0.53418 66.8934 0.53418C48.0995 0.53418 29.3056 0.53418 10.5117 0.53418C10.5117 26.6935 10.5117 52.833 10.5117 78.9923C12.1494 79.0122 13.8071 78.9923 15.4449 78.9923C34.6782 78.9923 53.8915 78.9923 73.1248 78.9923C78.5572 78.9923 83.9697 78.9923 89.4022 78.9923C89.3822 52.8529 89.3822 26.6935 89.3822 0.53418ZM87.4649 77.0826C63.1586 77.0826 38.8723 77.0826 14.5861 77.0826C13.8671 77.0826 13.168 77.0826 12.449 77.0826C12.449 67.8323 12.449 58.602 12.449 49.3517C12.449 33.7158 12.449 18.0798 12.449 2.44391H87.4649V77.0826Z" fill="#828282"/>
<path fill-rule="evenodd" clip-rule="evenodd" d="M85.1505 46.686C84.9108 46.4871 84.7111 46.2484 84.4914 46.0494C82.3943 43.9806 80.3171 41.9117 78.24 39.8428C78.2001 39.8229 78.1801 39.7632 78.22 39.7234C80.5168 37.4357 82.8137 35.1679 85.0905 32.8802C85.1105 32.8802 85.1505 32.8604 85.1505 32.8604C85.1505 37.4755 85.1704 42.0907 85.1505 46.686Z" fill="#828282"/>
<path fill-rule="evenodd" clip-rule="evenodd" d="M56.9289 74.7952C53.2341 74.8151 49.5392 74.7952 45.8443 74.7952C44.8856 74.7952 43.927 74.8151 42.9883 74.7952C44.8457 72.965 46.6832 71.115 48.5406 69.2649C48.9999 68.8074 49.4593 68.3101 49.9386 67.8525C49.9586 67.8525 49.9786 67.8525 49.9786 67.8724C51.1969 69.066 52.3952 70.2795 53.6135 71.4731C54.712 72.5871 55.8305 73.6812 56.9289 74.7952Z" fill="#828282"/>
<path fill-rule="evenodd" clip-rule="evenodd" d="M85.1503 54.8224C85.0305 54.6633 84.8707 54.5439 84.7309 54.3848C81.016 50.6847 77.2812 46.9846 73.5664 43.2845C72.388 42.1108 71.2097 40.957 70.0513 39.7833C74.9445 34.9095 79.8377 30.0556 84.7309 25.1818C84.8707 25.0227 85.0305 24.9033 85.1503 24.7442C85.1503 18.08 85.1503 11.4158 85.1503 4.77154C80.9162 4.75164 76.6621 4.77154 72.4279 4.77154H34.6604C28.0296 4.77154 21.3788 4.77154 14.748 4.77154C14.768 11.376 14.748 18.0004 14.748 24.6049C14.748 39.2064 14.748 53.8079 14.748 68.4094C14.748 70.5379 14.748 72.6665 14.748 74.795C21.4388 74.795 28.1095 74.795 34.8002 74.795C34.9999 74.5961 35.1996 74.3972 35.3994 74.1982C40.2526 69.3841 45.1059 64.5501 49.9592 59.7161C51.477 61.2479 53.0149 62.7597 54.5528 64.2915C56.9694 66.6986 59.3861 69.1056 61.8027 71.5127C62.9012 72.6068 63.9997 73.681 65.0981 74.795C65.178 74.795 65.2779 74.795 65.3578 74.795C71.9686 74.795 78.5594 74.795 85.1703 74.795C85.1503 68.1309 85.1703 61.4866 85.1503 54.8224ZM52.7752 18.7961C52.9949 18.7961 53.1947 18.7961 53.4144 18.7961C50.4984 21.6806 47.6024 24.5651 44.7065 27.4496C39.5536 32.582 34.4008 37.6945 29.2479 42.8269C29.208 42.8667 29.168 42.8866 29.148 42.9065C29.148 34.8697 29.148 26.813 29.148 18.7762C37.0171 18.7961 44.8862 18.7961 52.7752 18.7961ZM38.4551 60.1339C38.2155 61.7651 37.3966 63.2372 36.358 64.5103C36.6576 64.8087 36.9572 65.1071 37.2568 65.4055C36.7575 65.9426 36.2182 66.4599 35.6989 66.9771C35.0199 67.6534 34.3209 68.3497 33.6418 69.0261C33.3023 68.7078 32.9628 68.3895 32.6432 68.0712C31.365 69.0062 29.927 69.8218 28.3492 70.0804C27.2906 70.2594 26.1722 70.1799 25.1536 69.8019C24.3347 69.5035 23.5958 69.0459 22.9167 68.4889C22.3774 68.0314 21.8582 67.5341 21.4388 66.9572C20.9395 66.3007 20.54 65.5846 20.3203 64.7888C20.0007 63.7146 20.0008 62.5409 20.2404 61.4468C20.56 60.0344 21.279 58.7414 22.1578 57.6075C21.8382 57.2892 21.5186 56.9709 21.1991 56.6725C22.4573 55.4391 23.6757 54.2057 24.9339 52.9724C25.2734 53.2708 25.593 53.5891 25.9125 53.8676C26.5117 53.2708 27.2107 52.7536 27.9697 52.3955C29.6074 51.5998 31.5447 51.56 33.2623 52.0772C34.8002 52.5546 36.1184 53.609 37.097 54.8821C37.5564 55.4988 37.9558 56.195 38.1955 56.9311C38.535 57.9854 38.6149 59.0795 38.4551 60.1339ZM51.7567 51.003C51.0576 50.625 50.3586 50.2072 49.6596 49.8293C48.5411 50.9433 47.4227 52.0573 46.3042 53.1713C46.1644 53.3106 46.0246 53.4498 45.8848 53.5891C46.2843 54.2654 46.6837 54.9617 47.0831 55.638C45.8648 56.8714 44.6266 58.0849 43.3883 59.3183C40.712 54.0068 38.0357 48.6755 35.3594 43.3441C35.2795 43.1651 35.1597 43.006 35.1198 42.8269C35.7189 42.25 36.3181 41.6532 36.8973 41.0763C37.5763 40.3801 38.2754 39.7037 38.9544 39.0274C44.3669 41.7328 49.7994 44.4184 55.2318 47.1238C55.3317 47.1636 55.4316 47.2034 55.5114 47.283C54.2532 48.5163 53.0149 49.7696 51.7567 51.003ZM60.4845 33.8353C60.145 34.631 59.6257 35.3273 59.0665 35.9837C58.5273 36.5805 57.9481 37.1375 57.3888 37.7144C57.1092 37.9929 56.8296 38.2714 56.53 38.5499C57.8083 39.843 59.1065 41.1161 60.3847 42.4092C59.1264 43.6624 57.8682 44.9157 56.59 46.169C52.4557 42.0511 48.3214 37.9332 44.1872 33.8154C46.0046 32.025 47.8022 30.2147 49.5997 28.4244C50.6382 27.37 51.8365 26.4152 53.2546 25.9775C54.2332 25.6592 55.3317 25.6194 56.3103 25.9377C57.1492 26.1963 57.9081 26.6738 58.5472 27.2507C59.0865 27.7281 59.5458 28.2652 59.9453 28.862C60.3847 29.5185 60.7242 30.2744 60.844 31.0701C61.0438 32.0051 60.884 32.9799 60.4845 33.8353ZM68.3336 34.5116C68.2937 34.5514 68.2338 34.5713 68.2138 34.5116C65.877 32.204 63.5802 29.8766 61.2435 27.569C59.446 25.7786 57.6485 24.0081 55.851 22.2177C57.3089 20.7854 58.747 19.3332 60.2049 17.9009C60.2848 17.8214 60.3447 17.7418 60.4446 17.6821C63.7001 19.572 66.9555 21.4618 70.211 23.3516C70.0912 23.0731 69.9115 22.8344 69.7716 22.5559C68.0141 19.572 66.2565 16.588 64.5189 13.5842C65.6773 12.4502 66.8158 11.2965 67.9741 10.1626C68.3336 9.78459 68.7131 9.40662 69.0926 9.04854C73.2268 13.1664 77.3611 17.2843 81.4954 21.4021C80.3569 22.536 79.2385 23.65 78.1001 24.7839C77.4809 24.1673 76.8618 23.5705 76.2427 22.9538C75.1841 21.8994 74.1256 20.865 73.0671 19.7908C72.4879 19.2139 71.8887 18.637 71.3095 18.0601C71.4493 18.3784 71.6291 18.6768 71.7888 18.9752C73.107 21.422 74.4052 23.8888 75.7234 26.3356C75.4837 26.5942 75.2241 26.813 74.9844 27.0716C74.3653 27.6883 73.7461 28.2851 73.127 28.8819C70.3508 27.4098 67.5947 25.9178 64.8185 24.4458C65.9769 25.6194 67.1752 26.7732 68.3336 27.9469C69.1725 28.7625 69.9913 29.5981 70.8302 30.4137C71.0898 30.6723 71.3694 30.9309 71.6291 31.1895C70.5506 32.3035 69.4521 33.4175 68.3336 34.5116Z" fill="#828282"/>
<path fill-rule="evenodd" clip-rule="evenodd" d="M29.4453 64.9073C28.8262 65.3648 28.0872 65.7229 27.3083 65.6433C26.5094 65.5638 25.8104 65.0466 25.2911 64.4697C25.0115 64.1514 24.7718 63.7734 24.652 63.3556C24.5322 62.9379 24.5721 62.4605 24.7119 62.0626C24.8717 61.6448 25.1114 61.247 25.371 60.869C26.7491 62.2217 28.1072 63.5745 29.4453 64.9073Z" fill="#828282"/>
<path fill-rule="evenodd" clip-rule="evenodd" d="M33.6021 60.3525C33.4623 60.6708 33.3025 60.9891 33.1028 61.2676C31.7646 59.9148 30.4065 58.582 29.0684 57.2492C29.4878 56.9906 29.9272 56.7121 30.4065 56.5728C30.8459 56.4336 31.3452 56.4535 31.7646 56.6325C32.3039 56.8513 32.7233 57.2492 33.1028 57.6669C33.4223 58.0449 33.682 58.5025 33.7619 58.9998C33.8417 59.4374 33.7818 59.9347 33.6021 60.3525Z" fill="#828282"/>
<path fill-rule="evenodd" clip-rule="evenodd" d="M46.4211 47.9C46.2214 48.1387 46.0017 48.3377 45.782 48.5565C45.2028 49.1334 44.6036 49.7103 44.0244 50.3071C42.926 48.4371 41.8275 46.5672 40.729 44.6973C42.6264 45.7516 44.5237 46.8457 46.4211 47.9Z" fill="#828282"/>
<path fill-rule="evenodd" clip-rule="evenodd" d="M56.0088 32.7018C55.9489 33.3184 55.5295 33.8357 55.0901 34.2534C54.6108 34.7308 54.1314 35.2083 53.6321 35.7056C52.993 35.069 52.3739 34.4523 51.7347 33.8158C51.4351 33.5373 51.1555 33.2389 50.856 32.9604C51.1755 32.6222 51.515 32.3039 51.8346 31.9657C52.294 31.5082 52.7933 31.0705 53.3925 30.8119C53.7719 30.6528 54.2113 30.5931 54.6307 30.7324C55.0102 30.8716 55.3298 31.17 55.5694 31.4883C55.869 31.8066 56.0488 32.2442 56.0088 32.7018Z" fill="#828282"/>
</svg>
