<svg width="94" height="100" viewBox="0 0 94 100" fill="none" xmlns="http://www.w3.org/2000/svg">
<path d="M13.5452 40.0991C13.7649 39.5398 13.9646 39.0405 14.1843 38.5611C15.2029 36.3639 16.4811 34.3065 17.9591 32.389C18.5582 31.59 19.1574 30.771 19.8564 30.052C20.0362 29.8722 20.2159 29.7923 20.4955 29.7923C22.5527 29.8123 24.6298 29.7923 26.6869 29.7923C27.1064 29.7923 27.0864 29.7523 27.0864 30.1718C27.0864 38.0218 27.0864 45.8517 27.0864 53.7017C27.0864 53.7616 27.0864 53.8216 27.0864 53.8815C27.0864 54.0213 27.0265 54.0812 26.8867 54.0812C26.8068 54.0812 26.7469 54.0812 26.667 54.0812C24.6298 54.0812 22.5926 54.0812 20.5554 54.0812C20.4756 54.0812 20.4156 54.0812 20.3358 54.0812C20.196 54.0812 20.136 54.0413 20.136 53.9015C20.136 53.8016 20.136 53.7017 20.136 53.6218C20.136 49.1076 20.136 44.5934 20.136 40.0791C20.136 39.9393 20.136 39.8195 20.136 39.6397C19.9163 39.7795 19.7765 39.9593 19.6367 40.1391C19.2373 40.6584 18.9177 41.2177 18.5782 41.7969C17.4198 43.8343 16.4811 45.9516 15.8819 48.2287C15.7821 48.5882 15.7022 48.9478 15.6423 49.3273C15.6223 49.4871 15.5624 49.547 15.3826 49.547C14.1643 49.547 12.946 49.547 11.7477 49.547C11.5679 49.547 11.508 49.4871 11.4681 49.3073C11.0087 46.9304 10.1099 44.7332 8.99149 42.6159C8.5521 41.777 8.0528 40.958 7.51355 40.179C7.39372 40.0192 7.25391 39.8594 7.09413 39.6996C6.99427 39.8195 7.03421 39.9593 7.03421 40.0791C7.03421 42.8955 7.03421 45.7119 7.03421 48.5084C7.03421 50.2262 7.03421 51.9639 7.03421 53.6817C7.03421 53.7616 7.03421 53.8415 7.03421 53.9414C7.03421 54.0612 6.9743 54.1212 6.85447 54.1212C6.77458 54.1212 6.71466 54.1212 6.63477 54.1212C4.57762 54.1212 2.5005 54.1212 0.44336 54.1212C0.00396962 54.1212 0.0439142 54.1411 0.0439142 53.7417C0.0439142 45.8917 0.0439142 38.0617 0.0439142 30.2117C0.0439142 30.1518 0.0439142 30.0919 0.0439142 30.032C0.0439142 29.8922 0.103831 29.8322 0.243637 29.8322C0.323526 29.8322 0.38345 29.8322 0.463339 29.8322C2.54046 29.8322 4.61756 29.8322 6.69468 29.8322C6.95432 29.8322 7.13407 29.8922 7.29385 30.0919C7.67332 30.5114 8.0528 30.9308 8.4123 31.3902C9.9302 33.4077 11.4081 35.465 12.5266 37.7421C12.8661 38.4412 13.2456 39.2202 13.5452 40.0991Z" fill="#828282"/>
<path d="M79.6357 36.9443C79.6956 36.9643 79.7555 36.9643 79.8154 36.9443C81.1536 36.4649 82.4118 35.8457 83.5103 34.9469C84.6687 34.0081 85.5475 32.8495 86.1666 31.5113C86.3863 31.0319 86.586 30.5325 86.7458 30.0332C86.7858 29.8734 86.8656 29.7935 87.0454 29.7935C89.2623 29.7935 91.4992 29.7935 93.7161 29.7935C93.7561 29.7935 93.7761 29.8134 93.836 29.8134C93.7761 30.4326 93.6362 31.0119 93.4565 31.6111C92.8174 33.8083 91.639 35.7059 90.0612 37.3638C89.3622 38.1028 88.5833 38.782 87.7644 39.4211C87.6845 39.4811 87.6046 39.521 87.5447 39.6209C87.5647 39.6808 87.6246 39.7208 87.6645 39.7407C89.522 40.9991 90.9999 42.6171 92.2182 44.4747C93.9758 47.1313 95.0543 50.0276 95.4737 53.1835C95.5136 53.4232 95.5336 53.6629 95.5735 53.9026C95.5935 54.0225 95.5536 54.0824 95.4338 54.0824C95.3738 54.0824 95.3139 54.0824 95.254 54.0824C93.3566 54.0824 91.4393 54.0824 89.5419 54.0824C89.2024 54.0824 89.2024 54.0824 89.1625 53.7628C88.783 51.1661 87.7844 48.8291 86.2265 46.7118C85.188 45.3336 83.9697 44.1151 82.5317 43.1364C82.0923 42.8368 81.6928 42.677 81.1536 42.8967C80.7342 43.0765 80.2548 43.1364 79.8154 43.2363C79.6556 43.2762 79.5758 43.3361 79.5957 43.4959C79.6157 43.5758 79.5957 43.6557 79.5957 43.7556C79.5957 47.0314 79.5957 50.3272 79.5957 53.603C79.5957 54.1423 79.6556 54.0824 79.0964 54.0824C77.0593 54.0824 75.0421 54.0824 73.0049 54.0824C72.5655 54.0824 72.6054 54.1024 72.6054 53.7029C72.6054 45.8729 72.6054 38.0429 72.6054 30.2129C72.6054 29.7935 72.5655 29.8134 73.0049 29.8134C75.062 29.8134 77.1391 29.8134 79.1963 29.8134C79.2762 29.8134 79.3361 29.8134 79.416 29.8134C79.5358 29.8134 79.5957 29.8734 79.5957 29.9932C79.5957 30.0731 79.5957 30.153 79.5957 30.2529C79.5957 32.3702 79.5957 34.4675 79.5957 36.5848C79.5957 36.6846 79.5758 36.8245 79.6357 36.9443Z" fill="#828282"/>
<path d="M70.2678 40.719C70.2479 40.4394 70.1879 40.1398 70.148 39.8601C69.6487 36.864 68.2906 34.3072 65.9937 32.3098C63.2775 29.9328 60.1019 28.974 56.5469 29.4534C53.551 29.8529 51.0744 31.2911 49.1371 33.5881C46.6206 36.5843 45.6819 40.0399 46.2212 43.895C46.6606 47.0509 48.0986 49.7075 50.5552 51.7849C53.2315 54.042 56.3272 54.9808 59.8223 54.5014C62.239 54.1818 64.356 53.1631 66.1335 51.5252C68.9297 48.9485 70.2479 45.7326 70.3477 41.9574C70.3078 41.558 70.3078 41.1385 70.2678 40.719ZM62.8381 45.5528C62.3588 46.6714 61.6398 47.6102 60.5813 48.2694C58.6639 49.4279 55.6881 49.1283 54.0903 46.6914C53.4711 45.7326 53.1316 44.6939 52.9718 43.5754C52.7721 42.1772 52.812 40.779 53.1715 39.4207C53.4711 38.2821 53.9704 37.2435 54.7893 36.3846C56.7266 34.3472 60.082 34.4471 61.8994 36.6642C62.6983 37.643 63.1377 38.7815 63.3774 40.0199C63.4972 40.6591 63.5571 41.3183 63.5372 41.9375C63.5372 43.2158 63.3374 44.4143 62.8381 45.5528Z" fill="#828282"/>
<path d="M29.3843 41.8976C29.3843 38.0425 29.3843 34.1675 29.3843 30.3124C29.3843 30.2125 29.3843 30.1127 29.3843 30.0328C29.3644 29.873 29.4243 29.7731 29.604 29.7931C29.6839 29.7931 29.7438 29.7931 29.8237 29.7931C34.9566 29.7931 40.0695 29.7931 45.2024 29.7931C45.7217 29.7931 45.6617 29.7331 45.6617 30.2525C45.6617 31.5508 45.6617 32.8292 45.6617 34.1275C45.6617 34.2074 45.6617 34.2873 45.6617 34.3872C45.6617 34.527 45.6018 34.5869 45.462 34.567C45.3622 34.567 45.2623 34.567 45.1624 34.567C42.4063 34.567 39.6501 34.567 36.8939 34.567C36.814 34.567 36.7541 34.567 36.6742 34.567C36.3547 34.567 36.3546 34.567 36.3546 34.8865C36.3546 36.864 36.3546 38.8415 36.3546 40.819C36.3546 45.0735 36.3546 49.3481 36.3546 53.6026C36.3546 54.1219 36.3946 54.062 35.8753 54.062C33.8581 54.062 31.8409 54.062 29.8237 54.062C29.7438 54.062 29.6839 54.062 29.604 54.062C29.4442 54.082 29.3444 54.0221 29.3643 53.8423C29.3643 53.7624 29.3643 53.7025 29.3643 53.6226C29.3843 49.7276 29.3843 45.8126 29.3843 41.8976Z" fill="#828282"/>
<path d="M3.71985 59.7753C3.36035 60.2347 3.02081 60.6541 2.70125 61.0736C2.62136 61.1735 2.54148 61.2733 2.46159 61.3932C2.36173 61.533 2.26187 61.513 2.16201 61.3932C2.00223 61.1935 1.84245 60.9937 1.68267 60.794C1.42303 60.4744 1.16339 60.1548 0.923721 59.8352C0.803887 59.8951 0.843826 59.995 0.843826 60.0549C0.843826 60.8539 0.843826 61.6529 0.843826 62.4518C0.843826 62.7315 0.843834 62.7515 0.564221 62.7315C-0.0549215 62.7315 0.0249654 62.7914 0.0249654 62.2321C0.0249654 60.9338 0.0249654 59.6354 0.0249654 58.3171C0.0249654 58.1773 -0.0748963 57.9776 0.124827 57.8977C0.344523 57.8178 0.44438 58.0175 0.544241 58.1573C1.06352 58.7965 1.56283 59.4557 2.08211 60.0949C2.14203 60.1748 2.20195 60.2746 2.32178 60.3146C2.88101 59.6155 3.44023 58.8964 3.99945 58.1973C4.11929 58.0575 4.19918 57.8178 4.43885 57.9176C4.63857 57.9975 4.51874 58.2173 4.51874 58.377C4.51874 59.6954 4.51874 61.0137 4.51874 62.312C4.51874 62.3919 4.51874 62.4718 4.51874 62.5717C4.51874 62.6915 4.45882 62.7315 4.33899 62.7315C3.71984 62.7914 3.71985 62.7914 3.71985 62.1722C3.71985 61.4331 3.71985 60.6741 3.71985 59.9351C3.73982 59.8951 3.73982 59.8751 3.71985 59.7753Z" fill="#828282"/>
<path d="M7.69732 67.8246C7.65737 67.2054 7.39774 66.706 6.81854 66.4264C6.23935 66.1667 5.66015 66.2266 5.14087 66.6261C5.08095 66.666 5.06098 66.7459 4.98109 66.726C5.08095 66.3664 5.18082 66.2466 5.46043 66.0468C5.7001 65.887 5.95973 65.8071 6.21937 65.6873C6.45904 65.5874 6.71868 65.4876 6.9184 65.2878C7.07818 65.128 7.15807 64.9682 7.17804 64.7485C7.17804 64.6486 7.17805 64.5288 7.05821 64.5088C6.89843 64.4689 6.71868 64.4689 6.55891 64.4888C6.4191 64.5088 6.47901 64.6486 6.4191 64.7285C6.33921 64.8484 6.23935 64.9283 6.11951 64.9882C5.97971 65.0481 5.8399 65.0881 5.72007 65.148C5.10093 65.3877 4.64156 65.7872 4.40189 66.4064C4.14225 67.1255 4.14225 67.8845 4.38192 68.6036C4.52173 69.043 4.86125 69.3626 5.30064 69.5224C5.66014 69.6422 6.03962 69.6622 6.4191 69.5823C7.01827 69.4625 7.43768 69.1429 7.6374 68.5636C7.69732 68.3239 7.69732 68.0842 7.69732 67.8246ZM5.93976 68.9831C5.34059 68.9831 4.96112 68.5636 4.96112 67.9644C4.96112 67.3651 5.38054 66.9457 5.95974 66.9657C6.53893 66.9657 6.95834 67.4051 6.93837 67.9844C6.93837 68.5836 6.53893 68.9831 5.93976 68.9831Z" fill="#828282"/>
<path d="M11.6295 67.0062C11.3698 66.4469 10.9105 66.1672 10.2913 66.1672C9.87191 66.1672 9.51242 66.2871 9.21283 66.6666C8.97316 66.2471 8.83335 66.1672 8.39396 66.2072C8.2941 66.2272 8.17427 66.2072 8.17427 66.347C8.17427 66.4868 8.09438 66.6866 8.25416 66.7265C8.53377 66.8264 8.53377 67.0261 8.53377 67.2459C8.53377 68.4244 8.53377 69.6029 8.53377 70.8013C8.53377 71.3406 8.43391 71.2807 9.05306 71.2807C9.07303 71.2807 9.09299 71.2807 9.13294 71.2807C9.27274 71.2807 9.33266 71.2008 9.33266 71.081C9.33266 70.8013 9.33266 70.5217 9.33266 70.242C9.33266 69.9624 9.3127 69.7027 9.35264 69.4031C9.53239 69.463 9.69217 69.523 9.85195 69.5629C10.511 69.7227 11.1901 69.463 11.5496 68.8638C11.9291 68.2646 11.9291 67.6254 11.6295 67.0062ZM11.0103 68.2646C10.7707 69.0436 9.93183 69.1035 9.39258 68.724C9.33266 68.684 9.31269 68.6241 9.31269 68.5442C9.31269 68.4044 9.31269 68.2845 9.31269 68.0848C9.31269 67.9649 9.29272 67.7652 9.35264 67.5854C9.4525 67.146 9.75209 66.8863 10.1515 66.8663C10.5909 66.8464 10.9105 67.0861 11.0303 67.5255C11.0703 67.7652 11.0902 68.0249 11.0103 68.2646Z" fill="#828282"/>
<path d="M68.1698 60.4332C67.8303 59.1149 66.2325 59.035 65.6133 59.8339C65.5335 59.4145 65.2339 59.3146 64.8744 59.3546C64.7745 59.3546 64.6347 59.3546 64.6347 59.4944C64.6347 59.6342 64.5548 59.834 64.7146 59.8939C65.0342 59.9937 64.9742 60.2135 64.9742 60.4532C64.9742 61.6916 64.9742 62.91 64.9742 64.1484C64.9742 64.4481 64.9742 64.4481 65.2738 64.4481C65.833 64.4481 65.7532 64.508 65.7532 63.9687C65.7532 63.5093 65.7532 63.0498 65.7532 62.5705C65.9529 62.6304 66.1127 62.6903 66.2724 62.7303C66.9315 62.89 67.6305 62.6304 67.9701 62.0511C68.2896 61.5318 68.3096 60.9925 68.1698 60.4332ZM67.3909 61.5118C67.2311 61.9313 66.7917 62.171 66.3323 62.0911C66.2524 62.0711 66.1726 62.0511 66.0927 62.0311C65.7332 61.9113 65.7132 61.8713 65.7132 61.4918C65.7132 61.4119 65.7132 61.332 65.7132 61.2322C65.7132 61.0724 65.7132 60.9126 65.7332 60.7728C65.7931 60.3733 66.0727 60.0736 66.4522 60.0337C66.8516 59.9937 67.1912 60.1735 67.3509 60.553C67.5107 60.8527 67.5107 61.1722 67.3909 61.5118Z" fill="#828282"/>
<path d="M60.1202 62.1115C59.9405 62.1314 59.9006 62.0316 59.9006 61.8718C59.9006 61.5122 59.9006 61.1527 59.9006 60.7932C59.9006 60.4336 59.9006 60.0741 59.9006 59.7145C59.9006 59.4349 59.8806 59.4149 59.621 59.4149C59.002 59.4149 58.383 59.4149 57.764 59.4149C57.6043 59.4149 57.5244 59.4549 57.5044 59.6346C57.4845 59.9143 57.4246 60.2139 57.3846 60.4935C57.3247 60.8331 57.2848 61.1926 57.2249 61.5322C57.165 61.8318 57.0851 62.1115 56.7057 62.1314C56.6259 62.1314 56.5859 62.1914 56.5859 62.2912C56.5859 62.6308 56.6059 62.9903 56.6059 63.3299C56.6059 63.4098 56.6259 63.4897 56.7257 63.4897C56.9054 63.4897 57.1051 63.5696 57.2449 63.4497C57.3447 63.3699 57.2648 63.2101 57.2848 63.0702C57.2848 63.0503 57.2848 63.0303 57.2848 62.9903C57.2648 62.8106 57.3447 62.7307 57.5244 62.7307C58.0635 62.7307 58.6226 62.7307 59.1618 62.7307C59.6809 62.7307 59.621 62.6707 59.621 63.1901C59.621 63.4697 59.621 63.4697 59.9006 63.4697C59.9804 63.4697 60.0403 63.4697 60.1202 63.4697C60.22 63.4697 60.2799 63.4298 60.2799 63.3299C60.2799 63.0103 60.2999 62.6707 60.3199 62.3512C60.3598 62.1914 60.2999 62.0915 60.1202 62.1115ZM59.1418 61.8318C59.1418 62.1115 59.1418 62.1115 58.8622 62.1115C58.5028 62.1115 58.1634 62.1115 57.784 62.1115C58.0436 61.5322 58.0436 60.933 58.1234 60.3537C58.1634 60.0541 58.1634 60.0541 58.4629 60.0541C59.1618 60.0341 59.1618 60.0341 59.1618 60.7133C59.1418 61.0928 59.1418 61.4523 59.1418 61.8318Z" fill="#828282"/>
<path d="M23.9128 61.0728C23.8529 61.0328 23.773 61.0328 23.753 60.933C23.753 60.913 23.773 60.893 23.773 60.873C24.3121 60.3337 24.1324 59.6746 23.3936 59.4748C23.3137 59.4549 23.2339 59.4349 23.154 59.4349C22.6149 59.4349 22.0957 59.4149 21.5566 59.4149C21.3968 59.4149 21.3369 59.4748 21.3369 59.6346C21.3369 60.5934 21.3369 61.5722 21.3369 62.5309C21.3369 62.7107 21.4168 62.7706 21.5765 62.7506C22.0757 62.7506 22.5749 62.7506 23.0741 62.7307C23.2738 62.7307 23.4934 62.6907 23.6731 62.6308C23.9727 62.5309 24.1723 62.3312 24.2322 62.0116C24.2722 61.6521 24.2322 61.3125 23.9128 61.0728ZM22.0957 60.2139C22.0957 59.9343 22.0957 59.9542 22.3752 59.9343C22.5749 59.9343 22.7946 59.9342 22.9942 59.9742C23.1939 60.0141 23.3137 60.134 23.3337 60.3138C23.3537 60.4935 23.2139 60.6533 23.0142 60.6933C22.8744 60.7332 22.7347 60.7133 22.6548 60.7332C22.0358 60.7133 22.0957 60.8131 22.0957 60.2139ZM23.4934 61.7319C23.4735 61.9317 23.3936 62.0316 23.154 62.0915C22.8545 62.1714 22.5549 62.1314 22.2554 62.1314C22.1356 62.1314 22.0757 62.0715 22.0757 61.9517C22.0757 61.8917 22.0757 61.8318 22.0757 61.7719C22.0757 61.1527 21.9959 61.2326 22.6348 61.2326C22.7946 61.2126 22.9942 61.2326 23.1739 61.2925C23.4136 61.3724 23.5134 61.5122 23.4934 61.7319Z" fill="#828282"/>
<path d="M78.4354 60.9129C78.8347 60.6732 78.8747 60.3536 78.7948 59.9941C78.7149 59.6545 78.4553 59.5147 78.1359 59.4348C78.016 59.4148 77.8962 59.3949 77.7764 59.3949C77.2972 59.3949 76.8379 59.3949 76.3587 59.3749C76.179 59.3749 76.0991 59.4148 76.0991 59.6146C76.0991 60.5733 76.0991 61.5121 76.0991 62.4709C76.0991 62.6307 76.1391 62.7106 76.3188 62.7106C76.818 62.6906 77.3172 62.7106 77.8164 62.6906C78.036 62.6906 78.2557 62.6507 78.4553 62.5708C78.7549 62.4509 78.9346 62.2512 78.9945 61.9316C79.0743 61.5121 78.8946 61.1726 78.4354 60.9129ZM76.8379 60.2338C76.8379 59.9342 76.8379 59.9342 77.1375 59.9342C77.3371 59.9342 77.5568 59.9342 77.7565 59.9941C77.9761 60.034 78.0759 60.1739 78.0759 60.3736C78.0759 60.5334 77.9561 60.6732 77.7565 60.7132C77.6167 60.7331 77.4769 60.7331 77.397 60.7331C76.778 60.7132 76.8379 60.7931 76.8379 60.2338ZM77.8962 62.1114C77.7165 62.1513 77.5368 62.1513 77.2772 62.1513C76.778 62.1513 76.8579 62.2312 76.8579 61.632C76.8579 61.592 76.8579 61.5521 76.8579 61.5321C76.8579 61.2724 76.8579 61.2525 77.1375 61.2525C77.397 61.2525 77.6366 61.2325 77.8962 61.2924C78.1558 61.3523 78.2756 61.4922 78.2956 61.6919C78.2756 61.8917 78.1358 62.0515 77.8962 62.1114Z" fill="#828282"/>
<path d="M26.1877 67.7839C26.2676 67.7239 26.2876 67.684 26.3275 67.664C26.7468 67.2246 26.607 66.5854 26.0479 66.3657C25.9281 66.3257 25.8083 66.3058 25.6885 66.2858C25.1494 66.2059 24.5903 66.2458 24.0512 66.2458C23.8715 66.2458 23.8315 66.3257 23.8315 66.4855C23.8315 67.4443 23.8315 68.3831 23.8315 69.3419C23.8315 69.5416 23.9114 69.5816 24.0911 69.5816C24.6103 69.5616 25.1294 69.5816 25.6486 69.5616C25.8483 69.5616 26.0479 69.5017 26.2476 69.4218C26.5272 69.3019 26.6869 69.0822 26.7069 68.7826C26.7668 68.3431 26.627 68.0036 26.1877 67.7839ZM24.5703 66.9449C24.5703 66.865 24.6302 66.8051 24.7101 66.8251C24.9298 66.8251 25.1694 66.8051 25.389 66.8451C25.6486 66.885 25.7884 67.0248 25.7884 67.2246C25.7884 67.4243 25.6286 67.5641 25.369 67.6041C25.2492 67.6241 25.1294 67.6241 25.0895 67.6241C24.5304 67.6241 24.5703 67.684 24.5703 67.1846C24.5703 67.0848 24.5703 67.0049 24.5703 66.9449ZM25.988 68.5828C25.9681 68.8026 25.8483 68.9424 25.5887 68.9624C25.429 68.9823 25.2692 68.9624 25.1095 68.9624C24.4905 68.9624 24.5903 69.0622 24.5703 68.443C24.5703 68.3631 24.5703 68.3032 24.5703 68.2233C24.5703 68.1634 24.6103 68.1035 24.6902 68.1035C25.0096 68.1035 25.3291 68.0635 25.6286 68.1434C25.8882 68.2233 25.988 68.3431 25.988 68.5828Z" fill="#828282"/>
<path d="M30.4794 69.1429C30.2597 69.103 30.2597 68.9432 30.2597 68.7834C30.2597 68.3239 30.2597 67.8645 30.2597 67.4051C30.2597 66.746 29.9203 66.3465 29.2613 66.2266C28.7821 66.1267 28.3029 66.1667 27.8237 66.3065C27.4642 66.4064 27.4642 66.4463 27.5441 66.7859C27.584 66.9257 27.624 66.9657 27.7637 66.9058C28.1032 66.7859 28.4426 66.746 28.8021 66.7659C29.3612 66.8059 29.5409 67.0456 29.481 67.6049C29.3612 67.6248 29.2414 67.5449 29.1415 67.505C28.8021 67.4051 28.4426 67.3851 28.1032 67.465C27.5241 67.5849 27.2246 68.0243 27.2446 68.6236C27.2646 69.1429 27.7038 69.5424 28.2629 69.6023C28.7821 69.6622 29.2414 69.5024 29.6207 69.1229C29.8204 69.5624 29.9802 69.6622 30.3995 69.6023C30.4993 69.5823 30.5992 69.5823 30.5992 69.4425C30.6191 69.3426 30.679 69.1828 30.4794 69.1429ZM29.5009 68.5037C29.3412 68.9831 28.5225 69.2028 28.1631 68.8832C27.9235 68.6835 27.9634 68.264 28.243 68.0643C28.3827 67.9644 28.5026 67.9444 28.8021 67.9444C28.9618 67.9444 29.1215 67.9844 29.3013 68.0443C29.5409 68.1641 29.5808 68.244 29.5009 68.5037Z" fill="#828282"/>
<path d="M71.2473 67.8252C71.0876 67.985 70.9478 68.1448 70.7881 68.3246C70.6882 68.4444 70.5884 68.5643 70.4686 68.6841C70.2889 68.8639 70.2889 68.8639 70.1292 68.6841C69.9095 68.4444 69.7099 68.2247 69.4902 67.985C69.4503 67.9251 69.4103 67.8652 69.3105 67.8452C69.2306 67.9251 69.2706 68.025 69.2706 68.1049C69.2706 68.5243 69.2706 68.9238 69.2706 69.3433C69.2706 69.4831 69.2506 69.563 69.0709 69.563C68.5318 69.603 68.5318 69.603 68.5318 69.0636C68.5318 68.2247 68.5318 67.3658 68.5318 66.5269C68.5318 66.427 68.4918 66.3271 68.6117 66.2672C68.7315 66.2073 68.8113 66.2872 68.8912 66.3871C69.2506 66.7866 69.63 67.186 69.9894 67.5855C70.0693 67.6854 70.1491 67.8053 70.3089 67.8852C70.6483 67.5256 70.9678 67.1661 71.3072 66.8065C71.447 66.6467 71.6068 66.4869 71.7465 66.3271C71.8064 66.2672 71.8663 66.2472 71.9462 66.2672C72.046 66.2872 72.026 66.3671 72.026 66.447C72.026 67.4257 72.026 68.4045 72.026 69.3832C72.026 69.5231 71.9661 69.563 71.8264 69.583C71.2873 69.6229 71.2873 69.6229 71.2873 69.0836C71.2873 68.6841 71.2873 68.2846 71.2873 67.8652C71.2873 67.8452 71.2673 67.8452 71.2473 67.8252Z" fill="#828282"/>
<path d="M15.603 69.1434C15.3833 69.1035 15.3633 68.9237 15.3633 68.7639C15.3633 68.2845 15.3633 67.8251 15.3633 67.3457C15.3434 66.7265 15.0439 66.347 14.4249 66.2272C13.9656 66.1273 13.5063 66.1473 13.0471 66.2671C12.5679 66.3869 12.5479 66.4269 12.7076 66.8863C12.7076 66.9063 12.7476 66.9263 12.7675 66.9462C13.127 66.8264 13.5063 66.7665 13.9057 66.7864C14.4648 66.8064 14.6445 67.0261 14.6046 67.6453C14.2052 67.4456 13.7859 67.4057 13.3666 67.4456C12.7875 67.5055 12.4081 67.885 12.3482 68.4044C12.2883 69.0835 12.7276 69.5629 13.4065 69.6228C13.9257 69.6628 14.365 69.5229 14.7244 69.1434C14.944 69.5829 15.1237 69.6827 15.5231 69.6228C15.6229 69.6028 15.7228 69.5829 15.7228 69.463C15.7028 69.3432 15.7627 69.1834 15.603 69.1434ZM14.5846 68.5442C14.4249 68.9836 13.6062 69.2034 13.2468 68.8838C13.0072 68.684 13.0471 68.3045 13.3067 68.1048C13.4664 67.9649 13.6461 67.945 13.8458 67.9649C14.0255 67.9649 14.1852 68.0049 14.345 68.0648C14.6046 68.1447 14.6844 68.2845 14.5846 68.5442Z" fill="#828282"/>
<path d="M64.0742 62.3117C63.7947 62.2318 63.8146 62.0321 63.8146 61.8324C63.8146 61.3729 63.8146 60.9135 63.8146 60.4541C63.7947 59.8948 63.5351 59.5553 62.996 59.4154C62.4768 59.2756 61.9576 59.3156 61.4584 59.4354C61.0791 59.5353 61.0591 59.5952 61.1589 59.9747C61.1789 60.0147 61.1989 60.0546 61.2188 60.1146C61.6182 59.9947 61.9976 59.9148 62.3969 59.9348C62.9361 59.9747 63.1357 60.2144 63.0359 60.7937C62.976 60.7737 62.9161 60.7737 62.8562 60.7338C62.5367 60.6139 62.2172 60.574 61.8977 60.5939C61.1989 60.6539 60.7795 61.0933 60.7995 61.7724C60.8195 62.3517 61.2787 62.7512 61.9576 62.7712C62.4369 62.7911 62.8562 62.6513 63.1757 62.2718C63.3753 62.7312 63.5351 62.8111 63.9744 62.7512C64.0542 62.7312 64.1541 62.7312 64.1541 62.6313C64.1541 62.5115 64.234 62.3517 64.0742 62.3117ZM62.8562 61.9322C62.6565 62.092 62.4369 62.1719 62.0974 62.1719C61.8179 62.1719 61.5782 62.0121 61.5583 61.7325C61.5383 61.4129 61.7779 61.1333 62.1373 61.0933C62.4169 61.0534 62.6964 61.1333 62.956 61.2331C63.0559 61.2731 63.0958 61.353 63.0958 61.4528C63.0758 61.6726 63.0159 61.8124 62.8562 61.9322Z" fill="#828282"/>
<path d="M52.9502 59.435C53.1699 59.395 53.3896 59.415 53.5893 59.415C53.7691 59.415 53.789 59.5548 53.849 59.6747C54.1086 60.2939 54.3682 60.8931 54.6279 61.5123C54.6678 61.6122 54.6878 61.732 54.8076 61.7919C55.0473 61.1727 55.287 60.5535 55.5266 59.9343C55.7263 59.395 55.7263 59.395 56.3255 59.415C56.3655 59.415 56.4254 59.435 56.4653 59.435C56.5053 59.5548 56.4454 59.6347 56.4054 59.7146C55.9261 60.8531 55.4667 62.0117 54.9874 63.1502C54.8675 63.4498 54.7277 63.7295 54.548 63.9692C54.2284 64.3886 53.809 64.5085 53.3297 64.3487C53.1699 64.2888 53.07 64.2288 53.1499 64.0491C53.1899 63.9692 53.1499 63.8493 53.2298 63.7694C53.2498 63.7694 53.2897 63.7694 53.3297 63.7694C53.809 63.8493 53.9888 63.7494 54.1885 63.33C54.1885 63.31 54.1885 63.31 54.2085 63.29C54.4082 62.9505 54.4082 62.6309 54.2085 62.2514C53.789 61.4324 53.4295 60.5935 53.0501 59.7546C52.9902 59.6547 52.9302 59.5548 52.9502 59.435Z" fill="#828282"/>
<path d="M83.5672 61.0719C83.5672 60.5925 83.5672 60.1331 83.5672 59.6537C83.5672 59.4739 83.6271 59.394 83.8268 59.414C84.4258 59.434 84.326 59.3541 84.326 59.9134C84.326 60.1131 84.326 60.2929 84.326 60.4926C84.326 60.6125 84.3659 60.6724 84.5057 60.6724C84.925 60.6724 85.3244 60.6724 85.7437 60.6724C85.8635 60.6724 85.9035 60.5925 85.9035 60.4926C85.9035 60.213 85.9035 59.9134 85.9035 59.6337C85.9035 59.4939 85.9434 59.454 86.0832 59.434C86.6423 59.394 86.6623 59.394 86.6623 59.9533C86.6623 60.7723 86.6623 61.5912 86.6623 62.4102C86.6623 62.7697 86.6622 62.7697 86.3028 62.7697C86.2828 62.7697 86.2829 62.7697 86.2629 62.7697C85.9234 62.7697 85.9234 62.7697 85.9035 62.4302C85.9035 62.1705 85.9035 61.8908 85.9035 61.6312C85.9035 61.4514 85.8635 61.3715 85.6639 61.3715C85.3044 61.3915 84.965 61.3715 84.6055 61.3715C84.346 61.3715 84.346 61.3715 84.326 61.6312C84.326 61.9108 84.326 62.2104 84.326 62.4901C84.326 62.6698 84.2661 62.7497 84.0664 62.7497C83.4873 62.7497 83.5672 62.7697 83.5672 62.2704C83.5672 61.8709 83.5672 61.4714 83.5672 61.0719Z" fill="#828282"/>
<path d="M80.5728 61.213C81.1518 61.213 81.7109 61.213 82.29 61.213C82.8291 61.213 82.8291 61.213 82.8092 60.6737C82.7892 60.1344 82.5895 59.7149 82.0704 59.4752C80.9122 58.9559 79.6942 59.635 79.5544 60.8735C79.4546 61.8123 80.0137 62.5913 80.9721 62.771C81.4114 62.8509 81.8507 62.791 82.27 62.6911C82.7093 62.5713 82.7293 62.5313 82.6095 62.0919C82.6095 62.0719 82.5895 62.052 82.5496 61.992C82.1303 62.1518 81.7309 62.2117 81.2916 62.1718C80.8723 62.1318 80.5129 61.9721 80.3531 61.5326C80.2733 61.2729 80.3132 61.213 80.5728 61.213ZM80.9721 59.9546C81.3316 59.8747 81.691 59.8947 81.9705 60.1943C82.0304 60.2542 82.0704 60.3341 82.0903 60.414C82.1702 60.6138 82.1502 60.6537 81.9306 60.6537C81.5512 60.6537 81.1518 60.6537 80.7725 60.6537C80.6327 60.6537 80.4929 60.6737 80.3332 60.6338C80.413 60.2542 80.6327 60.0345 80.9721 59.9546Z" fill="#828282"/>
<path d="M66.0318 66.1672C64.9535 66.1872 64.2547 66.9462 64.2946 67.885C64.2547 69.1035 65.2331 69.6428 66.0518 69.6228C67.0701 69.6028 67.8089 68.9037 67.8089 67.905C67.7889 66.9063 67.0701 66.1672 66.0318 66.1672ZM67.0102 67.925C67.0102 68.4643 66.6907 68.8638 66.1915 68.9637C65.7323 69.0436 65.253 68.7839 65.0933 68.3245C64.8936 67.8051 65.0733 67.2259 65.5126 66.9862C65.8521 66.8064 66.1915 66.8064 66.511 66.9862C66.8704 67.166 67.0301 67.5055 67.0102 67.925Z" fill="#828282"/>
<path d="M1.78451 66.1656C0.76615 66.1456 0.0473116 66.8846 0.0273438 67.8834C0.0273438 68.8821 0.746187 69.6012 1.76455 69.6211C2.6631 69.6411 3.56164 69.0419 3.54167 67.9033C3.58161 66.9046 2.88274 66.1855 1.78451 66.1656ZM2.80286 67.9433C2.80286 68.5425 2.38354 68.962 1.80447 68.982C1.24537 68.982 0.826049 68.5625 0.806081 67.9633C0.786113 67.4439 1.02573 67.0844 1.42509 66.9246C1.82445 66.7848 2.2837 66.8846 2.54328 67.2042C2.74296 67.404 2.80286 67.6636 2.80286 67.9433Z" fill="#828282"/>
<path d="M8.83359 60.5331C8.63392 59.814 7.97498 59.3346 7.13634 59.3346C5.69867 59.3346 5.03973 60.6529 5.53893 61.8114C5.93828 62.7303 7.17627 63.0698 8.09479 62.5505C8.75372 62.151 9.05324 61.352 8.83359 60.5331ZM8.13472 61.0524C8.13472 61.6716 7.71541 62.0911 7.11638 62.0911C6.53732 62.0911 6.13796 61.6716 6.13796 61.0524C6.13796 60.5331 6.3576 60.1935 6.77692 60.0337C7.15631 59.8939 7.5956 60.0137 7.87515 60.3133C8.07482 60.5331 8.13472 60.7927 8.13472 61.0524Z" fill="#828282"/>
<path d="M21.3133 66.1672C20.275 66.1672 19.5562 66.8863 19.5562 67.905C19.5562 68.9237 20.275 69.6228 21.3133 69.6228C22.3516 69.6228 23.0705 68.9237 23.0705 67.885C23.0505 66.8863 22.3317 66.1672 21.3133 66.1672ZM21.3133 68.9637C20.7342 68.9637 20.295 68.5242 20.295 67.925C20.275 67.3058 20.6943 66.8663 21.2734 66.8663C21.8724 66.8663 22.2917 67.2858 22.3117 67.905C22.3117 68.4843 21.8924 68.9637 21.3133 68.9637Z" fill="#828282"/>
<path d="M46.9608 59.3346C45.9224 59.3346 45.2236 60.0337 45.2036 61.0524C45.2036 62.0911 45.9224 62.7902 46.9807 62.7902C48.0191 62.7902 48.7179 62.0911 48.7179 61.0724C48.7179 60.0137 48.0191 59.3346 46.9608 59.3346ZM47.9592 61.0724C47.9392 61.6716 47.4999 62.111 46.9208 62.0911C46.3418 62.0711 45.9224 61.6117 45.9424 61.0125C45.9624 60.4132 46.4017 59.9738 46.9807 59.9938C47.5598 60.0137 47.9791 60.4731 47.9592 61.0724Z" fill="#828282"/>
<path d="M20.395 60.2139C20.1155 59.6347 19.5963 59.355 18.9574 59.3151C18.2785 59.2751 17.6994 59.4749 17.32 60.0542C16.9406 60.6534 16.9406 61.2926 17.2801 61.9118C17.5996 62.511 18.1587 62.7307 18.6778 62.7507C20.3751 62.7707 20.9142 61.2926 20.395 60.2139ZM19.8359 61.0728C19.816 61.6921 19.3967 62.1115 18.8176 62.1115C18.2385 62.1115 17.8192 61.6521 17.8392 61.0329C17.8392 60.4137 18.2585 59.9942 18.8575 59.9942C19.4166 59.9942 19.8359 60.4736 19.8359 61.0728Z" fill="#828282"/>
<path d="M81.9543 68.0445C82.5334 68.0445 83.0925 68.0445 83.6715 68.0445C84.2306 68.0445 84.2306 68.0445 84.2107 67.4852C84.2107 67.4452 84.2107 67.3853 84.2107 67.3454C84.1508 66.846 83.8912 66.4865 83.4319 66.3067C82.4535 65.9471 81.0758 66.3067 80.9759 67.7448C80.916 68.6437 81.3753 69.3228 82.154 69.5425C82.6931 69.7023 83.2323 69.6624 83.7714 69.4826C84.1108 69.3628 84.1308 69.3428 84.0509 68.9833C84.031 68.9233 84.031 68.8634 83.9511 68.8235C83.7314 68.8634 83.5318 68.9633 83.2922 68.9633C83.0525 68.9833 82.8329 68.9833 82.5933 68.9633C82.1939 68.9233 81.8545 68.6637 81.7547 68.3241C81.6748 68.1244 81.7147 68.0644 81.9543 68.0445ZM82.3337 66.826C82.6931 66.7461 83.0526 66.7461 83.3521 67.0258C83.4319 67.0857 83.4719 67.1856 83.4918 67.2655C83.5517 67.4652 83.5318 67.5051 83.3321 67.5251C82.8129 67.5251 82.2938 67.5251 81.7147 67.5251C81.8146 67.1456 81.9943 66.8859 82.3337 66.826Z" fill="#828282"/>
<path d="M37.4124 67.4044C37.3725 66.8451 37.053 66.4256 36.5139 66.2658C36.3541 66.2259 36.1744 66.186 36.0147 66.186C35.176 66.126 34.4572 66.6054 34.2575 67.3445C34.1776 67.6041 34.1776 67.8638 34.1976 68.1435C34.2575 68.8426 34.6768 69.3819 35.3557 69.5616C35.9148 69.7214 36.454 69.6815 36.9931 69.5017C37.3126 69.4018 37.3326 69.3619 37.2527 69.0223C37.2127 68.8825 37.1728 68.8226 37.0131 68.8825C36.6137 69.0223 36.2144 69.0423 35.795 69.0024C35.3957 68.9624 35.1161 68.7627 34.9764 68.3831C34.8765 68.1035 34.9764 68.0636 35.196 68.0636C35.5155 68.0835 35.8549 68.0636 36.1744 68.0636C36.4739 68.0636 36.7735 68.0636 37.0929 68.0636C37.4124 68.0636 37.4124 68.0636 37.4324 67.744C37.4124 67.6241 37.4124 67.5242 37.4124 67.4044ZM36.5538 67.5242C36.1145 67.5242 35.6553 67.5242 35.216 67.5242C35.1361 67.5242 35.0762 67.5242 34.9764 67.5043C35.1561 66.8052 35.9947 66.5255 36.5139 66.945C36.6137 67.0249 36.6936 67.1447 36.7335 67.2646C36.7735 67.4443 36.7335 67.5242 36.5538 67.5242Z" fill="#828282"/>
<path d="M73.0244 67.9045C73.0244 67.4251 73.0244 66.9657 73.0244 66.4863C73.0244 66.3265 73.0643 66.2466 73.244 66.2466C74.1026 66.2466 74.9612 66.2466 75.8198 66.2466C76.0195 66.2466 76.0595 66.3265 76.0595 66.5062C76.0595 67.445 76.0595 68.3838 76.0595 69.3226C76.0595 69.5024 75.9995 69.5623 75.8198 69.5623C75.1609 69.5424 75.3007 69.6023 75.2807 69.063C75.2807 68.4438 75.2807 67.8046 75.2807 67.1854C75.2807 67.0056 75.2208 66.9257 75.0411 66.9257C74.7017 66.9457 74.3622 66.9257 74.0227 66.9257C73.7632 66.9257 73.7632 66.9257 73.7632 67.1854C73.7632 67.8246 73.7632 68.4637 73.7632 69.1029C73.7632 69.1828 73.7632 69.2627 73.7632 69.3626C73.7632 69.5024 73.7033 69.5424 73.5635 69.5623C73.0044 69.6023 73.0044 69.6023 73.0044 69.043C73.0244 68.6635 73.0244 68.284 73.0244 67.9045Z" fill="#828282"/>
<path d="M33.5375 61.2927C34.1166 60.7335 34.6956 60.1942 35.2747 59.6349C35.3745 59.535 35.4744 59.3552 35.6541 59.4152C35.8338 59.4951 35.734 59.6948 35.7539 59.8346C35.7539 60.6935 35.7539 61.5524 35.7539 62.4113C35.7539 62.7309 35.7539 62.7309 35.4344 62.7309C35.3945 62.7309 35.3346 62.7309 35.2947 62.7309C35.0351 62.7109 35.0351 62.7109 35.0351 62.4712C35.0351 61.9719 35.0351 61.4725 35.0351 60.9931C35.0351 60.9532 35.0351 60.8933 35.0151 60.8533C34.8953 60.8533 34.8354 60.9332 34.7755 60.9931C34.2563 61.4725 33.7372 61.9719 33.218 62.4712C33.1581 62.5112 33.1182 62.5711 33.0583 62.6111C32.9784 62.691 32.8985 62.7709 32.7787 62.7109C32.6789 62.651 32.7188 62.5312 32.7188 62.4513C32.7188 61.5324 32.7188 60.6136 32.7188 59.6948C32.7188 59.4152 32.7188 59.4152 32.9984 59.4152C33.5375 59.4152 33.4776 59.3552 33.4776 59.8746C33.4776 60.334 33.4776 60.8134 33.4776 61.2728C33.4776 61.2728 33.5175 61.2728 33.5375 61.2927Z" fill="#828282"/>
<path d="M37.4719 61.2926C37.6516 61.2327 37.7315 61.1129 37.8313 61.033C38.3305 60.5735 38.8097 60.0942 39.2889 59.6347C39.3488 59.5748 39.4088 59.5149 39.4687 59.455C39.6484 59.3351 39.7881 59.395 39.7881 59.6148C39.7881 60.5735 39.7881 61.5323 39.7881 62.5111C39.7881 62.6709 39.7282 62.7508 39.5485 62.7508C38.9495 62.7508 39.0294 62.7907 39.0294 62.2714C39.0294 61.812 39.0294 61.3326 39.0294 60.8732C38.8896 60.8532 38.8297 60.9531 38.7698 61.013C38.2506 61.5123 37.7115 62.0117 37.1923 62.5111C37.1324 62.571 37.0725 62.6309 37.0126 62.6908C36.9527 62.7508 36.8928 62.7707 36.813 62.7508C36.7131 62.7308 36.7331 62.6309 36.7331 62.571C36.7331 61.5922 36.7331 60.6135 36.7331 59.6347C36.7331 59.4749 36.793 59.415 36.9527 59.435C37.5917 59.435 37.4719 59.395 37.4719 59.9144C37.4719 60.3338 37.4719 60.7933 37.4719 61.2926Z" fill="#828282"/>
<path d="M90.6796 61.0728C90.6796 61.5323 90.6796 61.9917 90.6796 62.4511C90.6796 62.7108 90.6797 62.7307 90.4201 62.7307C89.861 62.7307 89.9408 62.7707 89.9408 62.2913C89.9408 62.0516 89.9408 61.8119 89.9408 61.5722C89.9408 61.4124 89.8809 61.3525 89.7212 61.3525C89.3418 61.3525 88.9424 61.3525 88.563 61.3525C88.3833 61.3525 88.3434 61.4324 88.3434 61.5922C88.3434 61.8918 88.3434 62.1914 88.3434 62.491C88.3434 62.6508 88.2835 62.7307 88.1238 62.7307C87.5048 62.7307 87.6246 62.7507 87.6246 62.2713C87.6246 61.4124 87.6246 60.5535 87.6246 59.6946C87.6246 59.415 87.6245 59.415 87.9041 59.415C88.4233 59.415 88.3434 59.375 88.3634 59.8544C88.3634 60.0542 88.3634 60.2739 88.3634 60.4736C88.3634 60.6334 88.4432 60.6734 88.583 60.6734C88.9624 60.6734 89.3618 60.6734 89.7412 60.6734C89.9009 60.6734 89.9608 60.6134 89.9608 60.4536C89.9608 60.174 89.9608 59.8944 89.9608 59.6147C89.9608 59.4549 90.0207 59.395 90.1804 59.395C90.8194 59.395 90.6996 59.355 90.6996 59.8744C90.6996 60.2739 90.6796 60.6734 90.6796 61.0728Z" fill="#828282"/>
<path d="M80.194 67.9249C80.194 68.3843 80.194 68.8437 80.194 69.3031C80.194 69.5628 80.1941 69.5828 79.9345 69.5828C79.3554 69.5828 79.4553 69.6227 79.4553 69.1034C79.4553 68.5041 79.4553 67.9049 79.4553 67.2857C79.4553 66.9461 79.4553 66.9461 79.0958 66.9461C78.996 66.9461 78.8962 66.9461 78.7963 66.9461C78.2971 66.9461 78.2972 66.9461 78.2373 67.4455C78.1973 67.8849 78.1574 68.3244 78.0775 68.7638C78.0575 68.8437 78.0376 68.9236 78.0176 69.0035C77.8978 69.403 77.6782 69.5828 77.2589 69.6027C77.159 69.6027 77.0592 69.6027 76.9593 69.6027C76.6998 69.5828 76.56 69.3031 76.6998 69.0834C76.7397 69.0235 76.7996 69.0434 76.8595 69.0235C77.2189 68.9636 77.2788 68.9236 77.3387 68.5441C77.4186 68.0048 77.4785 67.4655 77.5384 66.9262C77.5983 66.2271 77.5983 66.2271 78.3171 66.2271C78.8363 66.2271 79.3355 66.2271 79.8546 66.2271C80.1741 66.2271 80.1741 66.2271 80.1741 66.5466C80.1941 67.026 80.194 67.4655 80.194 67.9249Z" fill="#828282"/>
<path d="M41.2858 67.9244C41.2858 68.4038 41.2858 68.8632 41.2858 69.3426C41.2858 69.5224 41.2259 69.5823 41.0461 69.5623C41.0262 69.5623 41.0262 69.5623 41.0062 69.5623C40.4471 69.5623 40.527 69.6023 40.527 69.1029C40.527 68.4837 40.527 67.8445 40.527 67.2253C40.527 66.9257 40.527 66.9257 40.2275 66.9257C40.0278 66.9257 39.8082 66.9257 39.6085 66.9257C39.4288 66.9257 39.3888 67.0056 39.3689 67.1654C39.3289 67.6248 39.269 68.0842 39.2291 68.5237C39.2091 68.6835 39.1892 68.8433 39.1492 68.9831C38.9895 69.4824 38.4104 69.7621 37.9113 69.5823C37.7315 69.5224 37.8114 69.3626 37.7914 69.2427C37.7715 69.1229 37.8114 69.043 37.9512 69.023C38.3705 68.9631 38.4304 68.8832 38.4903 68.4238C38.5702 67.7846 38.6301 67.1454 38.71 66.5262C38.7499 66.2466 38.7499 66.2466 39.0095 66.2466C39.6684 66.2466 40.3473 66.2466 41.0062 66.2466C41.2658 66.2466 41.2658 66.2466 41.2658 66.5063C41.2858 66.9856 41.2858 67.465 41.2858 67.9244Z" fill="#828282"/>
<path d="M55.8085 68.1647C56.0481 67.925 56.2877 67.7053 56.5273 67.4656C56.8867 67.1061 57.2661 66.7665 57.6255 66.407C57.6654 66.367 57.7054 66.3271 57.7653 66.2871C57.925 66.1872 58.0448 66.2272 58.0448 66.4269C58.0448 66.7265 58.0448 67.0262 58.0448 67.3258C58.0448 67.9849 58.0448 68.6241 58.0448 69.2833C58.0448 69.5429 58.0448 69.5429 57.7853 69.5429C57.7653 69.5429 57.7653 69.5429 57.7453 69.5429C57.2461 69.5429 57.306 69.5629 57.306 69.1235C57.306 68.6441 57.306 68.1647 57.306 67.6853C57.1663 67.6254 57.1263 67.7253 57.0664 67.7852C56.5273 68.2845 55.9882 68.8039 55.449 69.3032C55.3891 69.3432 55.3492 69.4031 55.2893 69.463C55.2094 69.5429 55.1295 69.5829 55.0297 69.523C54.9299 69.483 54.9698 69.3831 54.9698 69.3032C54.9698 68.3644 54.9698 67.4256 54.9698 66.4868C54.9698 66.2871 55.0297 66.2272 55.2294 66.2272C55.8084 66.2272 55.7086 66.2072 55.7086 66.6666C55.7086 67.146 55.7086 67.6254 55.7086 68.1048C55.7485 68.1447 55.7685 68.1647 55.8085 68.1647Z" fill="#828282"/>
<path d="M45.804 67.925C45.804 67.4456 45.804 66.9862 45.804 66.5068C45.804 66.2472 45.824 66.2472 46.0836 66.2472C46.1435 66.2472 46.2034 66.2472 46.2633 66.2472C46.5229 66.2671 46.5428 66.2671 46.5428 66.5468C46.5428 66.8064 46.5428 67.0861 46.5428 67.3457C46.5428 67.4656 46.5828 67.5255 46.7225 67.5255C47.1419 67.5255 47.5412 67.5255 47.9605 67.5255C48.1003 67.5255 48.1602 67.4656 48.1602 67.3258C48.1602 67.0461 48.1602 66.7665 48.1602 66.4868C48.1602 66.3071 48.2201 66.2272 48.3998 66.2272C48.9988 66.2272 48.879 66.2072 48.879 66.6666C48.879 67.5255 48.879 68.4044 48.879 69.2633C48.879 69.523 48.879 69.523 48.6195 69.523C48.0604 69.523 48.1402 69.5629 48.1402 69.0635C48.1402 68.8239 48.1402 68.5842 48.1402 68.3445C48.1402 68.1847 48.0803 68.1248 47.9206 68.1447C47.5412 68.1447 47.1419 68.1447 46.7625 68.1447C46.5828 68.1447 46.5229 68.2046 46.5428 68.3844C46.5428 68.704 46.5428 69.0036 46.5428 69.3232C46.5428 69.483 46.4829 69.5429 46.3232 69.523C45.6842 69.523 45.824 69.5629 45.804 69.0436C45.804 68.704 45.804 68.3045 45.804 67.925Z" fill="#828282"/>
<path d="M32.1016 62.6914C31.822 62.7513 31.6024 62.7314 31.3827 62.7314C31.2629 62.7314 31.203 62.6315 31.1431 62.5316C30.9235 62.212 30.7038 61.8924 30.5041 61.5729C30.4043 61.4131 30.3045 61.3132 30.1048 61.3731C30.0449 61.3931 29.985 61.3931 29.9251 61.3731C29.7254 61.3531 29.6855 61.453 29.6855 61.6328C29.6855 61.9124 29.6855 62.1921 29.6855 62.4717C29.6855 62.7513 29.6855 62.7513 29.386 62.7513C28.9067 62.7713 28.9067 62.7713 28.9067 62.2919C28.9067 61.433 28.9067 60.5741 28.9067 59.7152C28.9067 59.4156 28.9067 59.4156 29.2063 59.4156C29.2462 59.4156 29.2861 59.4156 29.3061 59.4156C29.6655 59.4156 29.6655 59.4156 29.6655 59.7752C29.6655 60.0148 29.6655 60.2545 29.6655 60.4942C29.6655 60.654 29.7054 60.7339 29.8852 60.7339C30.584 60.7539 30.9634 60.4743 31.0832 59.7951C31.0832 59.7552 31.1032 59.6953 31.1032 59.6553C31.1032 59.6353 31.1032 59.6154 31.1032 59.5754C31.1431 59.3956 31.243 59.3757 31.6423 59.3956C31.822 59.4156 31.842 59.4955 31.842 59.6353C31.842 60.2346 31.6024 60.654 31.0033 61.1134C31.3628 61.6128 31.7222 62.1321 32.1016 62.6914Z" fill="#828282"/>
<path d="M62.8563 67.9241C63.2157 68.4634 63.5552 68.9628 63.9346 69.5221C63.655 69.582 63.4154 69.562 63.1758 69.542C63.056 69.542 63.036 69.4222 62.9761 69.3423C62.7565 69.0227 62.5568 68.7031 62.3372 68.3835C62.2773 68.3036 62.2373 68.1838 62.0975 68.1838C61.9378 68.1838 61.7581 68.1838 61.5984 68.2038C61.4985 68.2237 61.5185 68.3436 61.5185 68.4235C61.5185 68.7231 61.5185 69.0227 61.5185 69.3223C61.5185 69.4621 61.4785 69.542 61.3188 69.542C60.7397 69.582 60.7397 69.582 60.7397 69.0027C60.7397 68.1638 60.7397 67.3449 60.7397 66.5059C60.7397 66.2263 60.7397 66.2263 61.0193 66.2263C61.4985 66.2063 61.4985 66.2063 61.4985 66.6857C61.4985 66.9054 61.4985 67.1451 61.4985 67.3648C61.4985 67.5047 61.5584 67.5446 61.6982 67.5646C62.3571 67.5846 62.8164 67.3249 62.9162 66.6458C62.9362 66.5659 62.9561 66.486 62.9561 66.4061C62.9561 66.2862 62.9961 66.2263 63.1359 66.2263C63.695 66.2263 63.7549 66.1264 63.655 66.7856C63.5751 67.2849 63.3355 67.6644 62.8563 67.9241Z" fill="#828282"/>
<path d="M87.0607 67.9443C87.4001 68.4636 87.7595 68.983 88.1589 69.5622C87.8594 69.5622 87.6397 69.5622 87.4201 69.5622C87.2803 69.5622 87.2404 69.4424 87.1805 69.3625C86.9608 69.0429 86.7612 68.7233 86.5415 68.4037C86.4816 68.3238 86.4417 68.204 86.3019 68.204C86.1421 68.204 85.9624 68.204 85.8027 68.2239C85.7228 68.2439 85.7228 68.3438 85.7228 68.4037C85.7228 68.7233 85.7228 69.0229 85.7228 69.3425C85.7228 69.5223 85.6629 69.5622 85.4832 69.5622C84.8243 69.5622 84.9441 69.6022 84.9441 69.0629C84.9441 68.2239 84.9441 67.405 84.9441 66.566C84.9441 66.2465 84.9441 66.2465 85.2636 66.2465C85.8027 66.2465 85.7029 66.2465 85.7228 66.6859C85.7228 66.9056 85.7228 67.1453 85.7228 67.365C85.7228 67.5048 85.7827 67.5648 85.9225 67.5648C86.7212 67.5847 87.0607 67.2652 87.1805 66.5461C87.2404 66.2065 87.2404 66.2065 87.5798 66.2065C87.6198 66.2065 87.6797 66.2065 87.7196 66.2065C87.8794 66.1865 87.9393 66.2664 87.9193 66.4262C87.8794 67.0055 87.7196 67.5248 87.1805 67.8444C87.1405 67.8844 87.1206 67.9043 87.0607 67.9443Z" fill="#828282"/>
<path d="M16.7398 62.6905C16.4602 62.7504 16.2406 62.7304 16.0209 62.7304C15.8811 62.7304 15.8412 62.6305 15.7813 62.5307C15.5617 62.2111 15.362 61.8915 15.1423 61.5719C15.0824 61.492 15.0425 61.3522 14.9227 61.3522C14.743 61.3522 14.5633 61.3522 14.3836 61.3721C14.3037 61.3921 14.3237 61.492 14.3237 61.5519C14.3237 61.8515 14.3237 62.1511 14.3237 62.4508C14.3237 62.6305 14.2638 62.7104 14.084 62.7104C13.485 62.7104 13.5849 62.7304 13.5849 62.231C13.5849 61.3921 13.5849 60.5332 13.5849 59.6943C13.5849 59.3947 13.5849 59.3747 13.8644 59.3747C14.3836 59.3747 14.3037 59.3347 14.3237 59.8141C14.3237 60.0139 14.3237 60.2336 14.3237 60.4333C14.3237 60.6131 14.3636 60.693 14.5633 60.693C15.2821 60.713 15.6815 60.3934 15.7813 59.6743C15.8212 59.3747 15.8212 59.3747 16.1207 59.3747C16.1807 59.3747 16.2406 59.3747 16.3005 59.3747C16.4402 59.3547 16.5201 59.4146 16.5201 59.5744C16.5001 60.1137 16.3604 60.6131 15.8612 60.9127C15.7014 61.0126 15.6815 61.0925 15.8013 61.2523C16.1008 61.7317 16.4003 62.1911 16.7398 62.6905Z" fill="#828282"/>
<path d="M45.1214 68.3632C45.1015 67.9038 44.8419 67.5443 44.3826 67.3845C44.123 67.2846 43.8435 67.2846 43.564 67.2846C43.0049 67.2846 43.0049 67.2846 43.0049 66.7054C43.0049 66.226 43.0049 66.226 42.5256 66.2459C42.2661 66.2659 42.2461 66.2659 42.2461 66.5056C42.2461 66.965 42.2461 67.4244 42.2461 67.8838C42.2461 68.3632 42.2461 68.8426 42.2461 69.322C42.2461 69.4818 42.306 69.5617 42.4857 69.5617C42.9649 69.5617 43.4242 69.5617 43.9034 69.5617C44.1031 69.5617 44.3028 69.5018 44.5024 69.4219C44.9217 69.2221 45.1414 68.8426 45.1214 68.3632ZM43.9833 68.9425C43.7037 69.0424 43.4042 68.9824 43.1247 68.9824C43.0248 68.9824 43.0049 68.9025 43.0049 68.8226C43.0049 68.6828 43.0049 68.563 43.0049 68.4232C43.0248 67.784 42.905 67.8838 43.564 67.8639C43.7037 67.8639 43.8235 67.8639 43.9633 67.9038C44.2429 67.9837 44.3826 68.1835 44.3826 68.4232C44.3826 68.6629 44.2428 68.8426 43.9833 68.9425Z" fill="#828282"/>
<path d="M52.7117 68.3834C52.6918 67.924 52.4322 67.5645 51.9929 67.4047C51.8132 67.3448 51.6135 67.3048 51.4138 67.3048C51.2141 67.3048 50.9945 67.2848 50.7948 67.3048C50.6351 67.3048 50.5752 67.2449 50.5752 67.0851C50.5752 66.9453 50.5752 66.8055 50.5752 66.6457C50.5752 66.2462 50.5752 66.2462 50.1758 66.2462C50.1359 66.2462 50.096 66.2462 50.076 66.2462C49.8763 66.2262 49.8164 66.3261 49.8164 66.5058C49.8164 66.9852 49.8164 67.4446 49.8164 67.924C49.8164 68.1437 49.8164 68.3834 49.8164 68.6032C49.8164 68.8229 49.8164 69.0626 49.8164 69.2823C49.8164 69.5419 49.8164 69.5619 50.076 69.5619C50.5153 69.5619 50.9745 69.5619 51.4138 69.5619C51.6335 69.5619 51.8531 69.502 52.0528 69.4221C52.5121 69.2224 52.7317 68.8628 52.7117 68.3834ZM51.5736 68.9227C51.294 69.0226 50.9945 68.9627 50.715 68.9627C50.6151 68.9627 50.5952 68.8828 50.5952 68.8229C50.5952 68.683 50.5952 68.5632 50.5952 68.4234C50.6151 67.7842 50.4753 67.8641 51.1742 67.8641C51.294 67.8641 51.4138 67.8641 51.5336 67.904C51.7932 67.964 51.9729 68.1837 51.9729 68.4234C51.9729 68.6431 51.8331 68.8428 51.5736 68.9227Z" fill="#828282"/>
<path d="M91.816 68.4035C91.6962 69.1625 90.9774 69.6818 90.0589 69.6219C89.1603 69.562 88.5213 68.9028 88.4614 68.0439C88.4015 66.9054 89.1403 66.2662 90.0189 66.1663C90.8176 66.0864 91.6763 66.5458 91.7761 67.3448C91.5964 67.4047 91.4167 67.3648 91.2569 67.3648C91.1371 67.3648 91.0972 67.2849 91.0373 67.225C90.7378 66.8654 90.2785 66.7456 89.8592 66.9054C89.4199 67.0652 89.2002 67.4647 89.2202 67.964C89.2402 68.4234 89.5197 68.8029 89.979 68.9228C90.3584 69.0227 90.7178 68.9627 90.9374 68.6431C91.1371 68.3635 91.3568 68.3435 91.6563 68.3635C91.6962 68.3835 91.7561 68.3635 91.816 68.4035Z" fill="#828282"/>
<path d="M12.8056 61.5125C12.6059 62.3914 11.8671 62.8708 10.9086 62.751C10.0101 62.6511 9.39109 61.8921 9.43103 60.9932C9.47096 60.0145 10.1698 59.3553 11.1682 59.3153C11.9869 59.2754 12.6658 59.7748 12.7656 60.4739C12.6458 60.5338 12.506 60.4938 12.3663 60.5138C12.2065 60.5338 12.1067 60.4938 11.9869 60.354C11.7073 60.0145 11.288 59.9146 10.8687 60.0544C10.4693 60.1942 10.2098 60.5138 10.1898 60.9533C10.1499 61.4726 10.3495 61.8321 10.7489 62.0319C11.1682 62.2316 11.6674 62.1517 11.927 61.7722C12.0867 61.5525 12.2465 61.5125 12.4661 61.5325C12.6059 61.5325 12.6858 61.5125 12.8056 61.5125Z" fill="#828282"/>
<path d="M52.6326 61.5327C52.4728 62.3716 51.774 62.8311 50.8155 62.7512C49.9569 62.6912 49.3179 62.0121 49.278 61.1532C49.2181 60.0147 50.0368 59.4154 50.7157 59.3156C51.6741 59.1957 52.393 59.6152 52.6126 60.4541C52.4329 60.514 52.2332 60.4741 52.0535 60.4741C51.9537 60.4741 51.9138 60.4141 51.8539 60.3342C51.5943 59.9547 51.1949 59.8748 50.7956 59.9747C50.3762 60.0746 50.1167 60.3742 50.0368 60.8136C49.9769 61.2331 50.0967 61.6126 50.4361 61.8723C50.8355 62.1719 51.4545 62.1319 51.734 61.7325C51.9138 61.4728 52.1134 61.4528 52.373 61.4728C52.4729 61.5127 52.5527 61.5327 52.6326 61.5327Z" fill="#828282"/>
<path d="M28.1626 60.4742C27.9629 60.5341 27.7832 60.4942 27.6035 60.5141C27.4437 60.5341 27.4038 60.3943 27.3439 60.2944C27.0045 59.9349 26.4054 59.8749 25.9861 60.1746C25.5668 60.4942 25.447 61.1333 25.7066 61.6127C25.9661 62.0522 26.5053 62.2319 26.9645 62.0322C27.1043 61.9723 27.2241 61.8724 27.3439 61.7525C27.4038 61.6727 27.4238 61.5328 27.5636 61.5328C27.7433 61.5328 27.923 61.5129 28.1027 61.5328C28.2025 61.5328 28.1825 61.6527 28.1626 61.7126C28.0827 61.9922 27.903 62.2319 27.6834 62.4117C27.1842 62.8312 26.3056 62.8911 25.6866 62.5515C25.0676 62.2319 24.7481 61.5728 24.828 60.8137C24.9079 60.1346 25.3671 59.5554 26.046 59.3956C26.7249 59.2158 27.3639 59.3157 27.883 59.8749C28.0228 60.0347 28.1226 60.2345 28.1626 60.4742Z" fill="#828282"/>
<path d="M72.1431 60.4742C71.9634 60.5341 71.8037 60.4941 71.6639 60.4941C71.5441 60.4941 71.4642 60.4742 71.3843 60.3743C71.1248 59.9349 70.4858 59.9149 70.1064 60.0947C69.6671 60.3144 69.4475 60.8337 69.5873 61.3331C69.6871 61.7326 69.9267 62.0122 70.3261 62.0921C70.7454 62.172 71.1048 62.0721 71.3444 61.7126C71.4442 61.5528 71.564 61.5128 71.7238 61.5128C71.8635 61.5328 71.9834 61.5128 72.1231 61.5128C72.0832 62.192 71.4243 62.7313 70.6256 62.7513C69.6671 62.7712 68.9084 62.192 68.8085 61.3331C68.6887 60.3144 69.2279 59.4954 70.1663 59.3356C71.1447 59.1758 71.9035 59.5953 72.1431 60.4742Z" fill="#828282"/>
<path d="M94.5345 61.5123C94.5145 61.0529 94.2949 60.7134 93.8356 60.5536C93.5361 60.4537 93.2565 60.4137 92.9371 60.4137C92.378 60.4137 92.3979 60.4137 92.378 59.8545C92.378 59.3551 92.4578 59.395 91.8788 59.395C91.6991 59.395 91.6392 59.455 91.6392 59.6148C91.6392 60.0942 91.6392 60.5536 91.6392 61.033C91.6392 61.5123 91.6392 61.9718 91.6392 62.4511C91.6392 62.7108 91.6391 62.7108 91.8987 62.7308C92.2781 62.7308 92.6775 62.7508 93.0569 62.7308C93.3564 62.7108 93.6359 62.6908 93.8955 62.551C94.3547 62.3313 94.5345 61.9718 94.5345 61.5123ZM93.3963 62.0716C93.1168 62.1715 92.8173 62.1515 92.5377 62.1315C92.4379 62.1315 92.3979 62.0716 92.3979 61.9718C92.3979 61.8319 92.3979 61.6921 92.3979 61.5323C92.3979 60.9131 92.3181 61.013 92.9371 60.993C93.0968 60.993 93.2765 60.993 93.4362 61.0529C93.6759 61.1528 93.7957 61.3126 93.7957 61.5523C93.7757 61.812 93.6359 61.9917 93.3963 62.0716Z" fill="#828282"/>
<path d="M16.2427 68.7224C16.5622 68.8822 16.9016 68.9621 17.261 69.022C17.4807 69.062 17.7003 69.022 17.9 68.9621C18.0997 68.8822 18.1995 68.7424 18.1995 68.5626C18.1995 68.3629 18.0997 68.263 17.88 68.1831C17.6404 68.1032 17.3808 68.1432 17.1212 68.1432C16.8816 68.1232 16.8816 68.1232 16.8816 67.8835C16.8816 67.6438 16.8816 67.6238 17.1013 67.6238C17.301 67.6038 17.4807 67.6438 17.6803 67.5839C17.9 67.5239 18.0198 67.4041 18.0198 67.2243C18.0198 67.0446 17.9 66.8848 17.6803 66.8448C17.3609 66.7849 17.0613 66.8049 16.7419 66.8848C16.6021 66.9247 16.4823 67.0046 16.3225 66.9846C16.2227 66.4653 16.2427 66.4453 16.7019 66.3255C17.1213 66.2256 17.5406 66.2256 17.9599 66.2855C18.1795 66.3255 18.3792 66.4054 18.539 66.5452C18.8984 66.8648 18.8984 67.4041 18.519 67.7237C18.4791 67.7636 18.4192 67.7836 18.3992 67.8635C18.4591 67.9035 18.519 67.9234 18.5789 67.9634C19.0781 68.283 19.118 69.0021 18.6588 69.3816C18.4791 69.5414 18.2594 69.6213 18.0398 69.6612C17.5006 69.7411 16.9815 69.7211 16.4623 69.5214C16.1229 69.4015 16.1029 69.3816 16.1428 69.022C16.1628 68.9022 16.1428 68.8023 16.2427 68.7224Z" fill="#828282"/>
<path d="M32.3414 66.2466C32.7408 66.2466 33.1401 66.2466 33.5395 66.2466C33.6992 66.2466 33.7591 66.3065 33.7791 66.4863C33.7991 66.9257 33.7991 66.9257 33.3598 66.9457C33.1401 66.9457 32.8806 66.8458 32.7408 67.0056C32.601 67.1454 32.7008 67.4051 32.7008 67.6048C32.7008 68.1641 32.7008 68.7434 32.7008 69.3027C32.7008 69.5623 32.7008 69.5823 32.4413 69.5823C31.8622 69.5823 31.962 69.6223 31.962 69.1029C31.962 68.5237 31.962 67.9444 31.962 67.3651C31.962 66.9057 32.002 66.9457 31.5228 66.9457C31.383 66.9457 31.2232 66.9457 31.0835 66.9457C30.9437 66.9457 30.8838 66.8858 30.8838 66.7459C30.8838 66.666 30.8838 66.6061 30.8838 66.5262C30.8838 66.2666 30.9038 66.2666 31.1434 66.2466C31.5427 66.2466 31.9421 66.2466 32.3414 66.2466Z" fill="#828282"/>
<path d="M74.0412 59.4149C74.4206 59.4149 74.82 59.4149 75.1994 59.4149C75.3791 59.4149 75.4789 59.4549 75.459 59.6546C75.459 59.6946 75.459 59.7545 75.459 59.7944C75.459 60.0741 75.459 60.0741 75.1794 60.0741C75.0197 60.0741 74.8599 60.0741 74.7002 60.0741C74.3807 60.0741 74.3807 60.0741 74.3807 60.3937C74.3807 61.0528 74.3807 61.692 74.3807 62.3512C74.3807 62.7506 74.3807 62.7506 73.9813 62.7307C73.6419 62.7307 73.6419 62.7307 73.6419 62.3911C73.6419 61.712 73.6419 61.0328 73.6419 60.3737C73.6419 60.094 73.6419 60.094 73.3623 60.094C73.1826 60.094 73.0029 60.094 72.8232 60.094C72.6634 60.114 72.5636 60.0541 72.5836 59.8743C72.5836 59.7944 72.5836 59.7345 72.5836 59.6546C72.5636 59.4748 72.6634 59.4149 72.8232 59.4349C73.2225 59.4149 73.6219 59.4149 74.0412 59.4149Z" fill="#828282"/>
<path d="M42.5058 61.0522C42.5058 60.5728 42.5058 60.1134 42.5058 59.634C42.5058 59.4742 42.5458 59.3943 42.7255 59.3943C43.3644 59.3943 43.9834 59.3943 44.6224 59.3943C44.8021 59.3943 44.862 59.4542 44.8421 59.634C44.8421 59.654 44.8421 59.654 44.8421 59.6739C44.8421 60.1134 44.862 60.0734 44.4627 60.0734C44.1432 60.0734 43.8237 60.0734 43.5242 60.0734C43.2646 60.0734 43.2446 60.0734 43.2446 60.3531C43.2446 61.0322 43.2446 61.7113 43.2446 62.3705C43.2446 62.73 43.2446 62.73 42.8852 62.73C42.8453 62.73 42.7854 62.73 42.7454 62.73C42.5657 62.75 42.5258 62.6501 42.5258 62.4903C42.5058 62.011 42.4859 61.5316 42.5058 61.0522Z" fill="#828282"/>
<path d="M54.0299 67.9239C54.0299 68.3633 54.0299 68.7828 54.0299 69.2222C54.0299 69.5618 54.0299 69.5618 53.6705 69.5618C53.311 69.5618 53.311 69.5618 53.311 69.2022C53.311 68.3234 53.311 67.4445 53.311 66.5656C53.311 66.246 53.311 66.246 53.6505 66.226C53.6904 66.226 53.7503 66.226 53.7903 66.226C53.97 66.2061 54.0299 66.286 54.0299 66.4458C54.0299 66.9451 54.0299 67.4245 54.0299 67.9239Z" fill="#828282"/>
<path d="M56.6856 65.8659C56.1464 65.8659 55.7471 65.6062 55.6273 65.1668C55.6073 65.0869 55.5075 64.967 55.6672 64.8871C55.807 64.8272 56.0266 64.8472 56.0865 64.967C56.1864 65.1468 56.3261 65.2467 56.5058 65.2666C56.7654 65.3066 57.005 65.2467 57.1648 65.007C57.2646 64.8472 57.4643 64.8072 57.624 64.8871C57.7039 64.9271 57.7039 64.987 57.684 65.0669C57.6241 65.4664 57.2447 65.8059 56.8054 65.8659C56.7854 65.8659 56.7055 65.8659 56.6856 65.8659Z" fill="#828282"/>
<path d="M38.372 58.9948C37.8728 58.9948 37.4934 58.7351 37.3736 58.2957C37.3536 58.1958 37.2737 58.056 37.4335 58.016C37.5733 57.9961 37.753 57.8562 37.8528 58.076C37.9726 58.3356 38.1923 58.3955 38.4518 58.3756C38.6515 58.3756 38.8312 58.2957 38.9311 58.0959C38.971 58.016 38.991 57.9361 39.1108 57.9561C39.2106 57.9761 39.3304 57.9761 39.4303 58.036C39.5101 58.076 39.4702 58.1558 39.4502 58.2357C39.3304 58.7151 38.9111 59.0147 38.372 58.9948Z" fill="#828282"/>
</svg>
