<svg width="100" height="100" viewBox="0 0 100 100" fill="none" xmlns="http://www.w3.org/2000/svg">
<path d="M31.1192 99.8721C30.6798 99.4126 30.2404 98.9532 29.801 98.5138C29.1219 97.8147 28.4229 97.1355 27.7439 96.4364C27.6839 96.3765 27.624 96.3166 27.624 96.3166C28.1633 95.7573 28.6426 95.158 29.2018 94.6586C29.801 94.1193 30.4201 94.1793 30.9794 94.6986C31.5386 95.218 31.6384 95.8372 31.219 96.4764C31.0193 96.776 30.7597 97.0356 30.52 97.3153C30.3203 97.515 30.1205 97.6948 29.9009 97.8946C30.4601 98.4539 30.9794 98.9732 31.5186 99.5125C31.3988 99.6723 31.2989 99.7722 31.1991 99.892C31.1591 99.8721 31.1391 99.8721 31.1192 99.8721ZM28.2032 96.1368C28.7025 96.6561 29.1619 97.1156 29.6412 97.6349C30.0207 97.2154 30.4401 96.7959 30.7996 96.3565C31.1591 95.9171 31.0992 95.4776 30.6798 95.0781C30.2604 94.6587 29.8809 94.6187 29.4215 94.9983C29.0021 95.3578 28.6027 95.7773 28.2032 96.1368Z" fill="#828282"/>
<path d="M28.7227 19.9745C31.8982 16.7786 35.0738 13.5827 38.2295 10.4067C39.0483 11.2457 39.9071 12.1045 40.7659 12.9634C38.6289 15.1007 36.4719 17.2979 34.2949 19.4751C34.974 20.1543 35.5931 20.7735 36.2123 21.3927C38.3493 19.2355 40.5263 17.0582 42.6833 14.881C45.4594 17.6575 48.1956 20.4139 50.9318 23.1504C47.7562 26.3463 44.5806 29.5622 41.425 32.7382C37.1909 28.5036 32.9568 24.249 28.7227 19.9745ZM38.6289 23.8695C39.7074 24.9481 40.7859 26.0267 41.8444 27.1054C43.1426 25.807 44.4408 24.4887 45.739 23.1904C44.6805 22.1118 43.602 21.0131 42.5435 19.9545C41.2453 21.2528 39.9271 22.5712 38.6289 23.8695Z" fill="#828282"/>
<path d="M31.4009 37.6713C33.2183 35.8136 35.0158 34.0159 36.7534 32.2382C37.6322 33.137 38.491 33.996 39.3099 34.8149C36.4539 37.7112 33.5778 40.6674 30.6819 43.6236C30.602 43.5437 30.5221 43.5038 30.4821 43.4439C29.3837 42.3453 28.3052 41.2467 27.2067 40.1481C27.0669 40.0083 27.0269 39.9084 27.0869 39.7087C27.9057 36.6326 28.7246 33.5365 29.5634 30.4605C29.6233 30.2607 29.5834 30.1409 29.4436 30.001C28.6047 29.1621 27.7659 28.3232 26.9271 27.4643C26.8472 27.3844 26.7873 27.2645 26.7274 27.2046C25.509 28.4231 24.3307 29.6016 23.1523 30.7801C24.111 31.7588 25.1296 32.7575 26.0882 33.7363C25.1895 34.6351 24.3307 35.494 23.5118 36.3329C21.6744 34.4953 19.8169 32.6177 17.9795 30.7801C20.8555 27.8838 23.7515 24.9675 26.6674 22.0312C26.6874 22.0512 26.7673 22.1111 26.8272 22.1711C29.0441 24.4082 31.2411 26.6253 33.458 28.8425C33.5978 29.0023 33.6178 29.1222 33.5778 29.3019C32.8588 32.0185 32.1598 34.735 31.4408 37.4515C31.4208 37.5314 31.4208 37.5714 31.4009 37.6713Z" fill="#828282"/>
<path d="M57.147 25.5265C57.7461 24.9272 58.3453 24.328 59.0044 23.6888C59.2041 23.9086 59.4238 24.1482 59.6435 24.3879C59.7633 24.5278 59.8832 24.5477 60.043 24.4678C62.9989 23.2494 65.9747 22.031 68.9306 20.7925C69.1903 20.6927 69.3301 20.7126 69.5298 20.9124C69.9692 21.3917 70.4285 21.8512 70.8879 22.2906C71.0876 22.4704 71.0876 22.6102 70.9878 22.8499C69.7695 25.8261 68.5911 28.8023 67.3728 31.7585C67.2729 31.9982 67.2929 32.138 67.4926 32.3178C67.7123 32.4975 67.912 32.7173 68.1317 32.917C67.4926 33.5362 66.8934 34.1354 66.3142 34.6947C63.2585 31.6786 60.2027 28.6025 57.147 25.5265ZM67.7123 24.1482C67.6923 24.1282 67.6724 24.1083 67.6724 24.1083C65.755 24.9672 63.8577 25.8261 61.9803 26.685C63.0588 27.7636 64.1173 28.8422 65.1758 29.9008C66.0147 27.9833 66.8735 26.0658 67.7123 24.1482Z" fill="#828282"/>
<path d="M81.8889 33.5172C79.8916 35.5346 77.8944 37.532 75.8772 39.5494C74.4392 38.0913 72.9812 36.6132 71.5033 35.1351C70.7044 35.954 69.9055 36.773 69.1266 37.552C68.4275 36.8329 67.7485 36.1538 67.1094 35.4946C69.8855 32.7182 72.6816 29.8818 75.4778 27.0654C77.5948 29.1827 79.7319 31.34 81.8889 33.5172ZM75.8772 35.994C76.716 35.1551 77.5349 34.3161 78.3538 33.4972C77.495 32.6383 76.6162 31.7594 75.7574 30.8806C74.9385 31.6995 74.0997 32.5584 73.2808 33.3774C74.1596 34.2562 75.0384 35.1351 75.8772 35.994Z" fill="#828282"/>
<path d="M47.7178 16.0588C48.4368 15.7791 49.1358 15.4995 49.8348 15.2199C53.0703 13.9015 56.3059 12.5633 59.5214 11.225C59.7211 11.1451 59.821 11.165 59.9808 11.3248C60.4601 11.8242 60.9594 12.3236 61.4587 12.8229C61.5785 12.9428 61.6185 13.0427 61.5386 13.2025C59.9608 17.0975 58.383 20.9925 56.8052 24.9075C56.7852 24.9674 56.7453 25.0273 56.6853 25.1672C56.226 24.6878 55.8065 24.2284 55.3672 23.7889C55.1674 23.5692 54.9477 23.3495 54.728 23.1497C54.5683 23.0099 54.5483 22.8901 54.6282 22.6903C54.9477 22.0312 55.2273 21.3521 55.5269 20.6929C55.6268 20.4931 55.5868 20.3933 55.4271 20.2335C54.4684 19.2747 53.5097 18.3159 52.5511 17.3372C52.4113 17.1974 52.3114 17.1574 52.1316 17.2572C51.4726 17.5768 50.8135 17.8565 50.1544 18.1561C49.9746 18.236 49.8548 18.236 49.695 18.0762C49.0759 17.3971 48.3968 16.7379 47.7178 16.0588ZM56.6853 18.0962C57.2046 16.9177 57.7239 15.7592 58.2232 14.5807C58.2032 14.5607 58.1832 14.5607 58.1633 14.5407C57.0049 15.0601 55.8465 15.5794 54.7081 16.1187C55.3871 16.7978 56.0262 17.4371 56.6853 18.0962Z" fill="#828282"/>
<path d="M47.7157 16.0594C47.0167 15.3404 46.2977 14.6413 45.6186 13.9222C45.5188 13.8223 45.4589 13.6426 45.4589 13.5028C45.5787 11.765 45.7385 10.0272 45.8783 8.3094C45.9182 7.79006 45.9582 7.27068 45.9981 6.77132C44.7598 8.00974 43.5216 9.26815 42.3032 10.4866C41.5842 9.76751 40.9052 9.08837 40.2461 8.42921C43.0422 5.61281 45.8383 2.79642 48.6145 0C49.2536 0.639183 49.9326 1.3183 50.6317 2.03739C49.3934 3.2758 48.1351 4.53418 46.797 5.87247C47.2364 5.83252 47.5959 5.81255 47.9554 5.7726C49.8727 5.57286 51.7701 5.39312 53.6874 5.21335C53.7873 5.21335 53.9071 5.23331 53.987 5.29323C54.6261 5.93242 55.2652 6.57159 55.9043 7.23075C55.9243 7.25072 55.9243 7.27069 55.9643 7.33062C55.5848 7.37057 55.2253 7.43048 54.8858 7.47043C52.8086 7.71012 50.7116 7.92984 48.6344 8.16954C48.4347 8.18951 48.3748 8.26941 48.3548 8.46915C48.1751 10.906 47.9754 13.3629 47.7756 15.7998C47.7756 15.8597 47.7357 15.9596 47.7157 16.0594Z" fill="#828282"/>
<path d="M44.1038 86.6491C43.9241 85.4307 43.7443 84.2322 43.5646 82.9938C42.6259 82.9538 41.6872 82.9138 40.7285 82.8739C40.9083 82.6142 41.068 82.4744 41.3876 82.4944C42.4262 82.5543 43.4647 82.5943 44.4833 82.6342C43.9041 82.055 43.3049 81.4558 42.6858 80.8166C42.8855 80.6768 42.9854 80.5769 43.1651 80.457C43.7244 81.0363 44.3035 81.6555 44.8827 82.2747C44.9027 82.2547 44.9427 82.2347 44.9626 82.2347C44.9427 81.6954 44.9027 81.1361 44.8827 80.5968C44.8628 80.0975 44.8428 79.5981 44.7829 79.0988C44.7429 78.7592 44.8828 78.5794 45.1624 78.3997C45.2023 79.1787 45.2422 79.9377 45.2822 80.6967C45.2822 80.7966 45.3022 80.8965 45.3022 81.0163C45.2822 81.236 45.402 81.276 45.5818 81.3159C46.6802 81.4558 47.7588 81.6155 48.8572 81.7753C48.8772 81.7753 48.8972 81.7953 48.9571 81.7953C48.7773 82.055 48.5976 82.1948 48.2381 82.1349C47.2994 81.9751 46.3407 81.8752 45.3421 81.7354C45.382 82.2347 45.2223 82.7341 45.7216 83.1136C46.0811 83.3933 46.3807 83.7528 46.7202 84.1124C46.6203 84.2122 46.5205 84.3321 46.3607 84.4918C46.0212 84.1323 45.6816 83.7927 45.3821 83.4332C45.1823 83.1935 44.9427 83.0737 44.6431 83.0936C44.4633 83.1136 44.2636 83.0936 44.0439 83.0936C44.1238 83.6329 44.1837 84.1523 44.2636 84.6716C44.3235 85.111 44.3635 85.5705 44.4633 86.0099C44.5232 86.2696 44.4034 86.4693 44.1038 86.6491Z" fill="#828282"/>
<path d="M52.5113 38.3716C52.6511 39.3504 52.7909 40.2891 52.9307 41.2479C52.9906 41.6874 52.9906 41.6874 52.6112 42.007C52.4314 40.7885 52.2517 39.59 52.0719 38.3516C51.1332 38.3117 50.2145 38.2717 49.2358 38.2317C49.4156 37.9721 49.5754 37.8123 49.8949 37.8323C50.8736 37.8922 51.8522 37.9321 52.8308 37.9921C52.9107 37.9921 52.9706 37.9921 53.0306 37.9921C52.4314 37.3928 51.8522 36.7936 51.253 36.1744C51.4128 36.0346 51.5127 35.9347 51.6525 35.7949C52.2117 36.3941 52.7909 37.0133 53.3901 37.6126C53.41 37.5926 53.43 37.5926 53.45 37.5726C53.45 37.4128 53.45 37.273 53.45 37.1132C53.41 36.2143 53.3701 35.3354 53.2902 34.4366C53.2702 34.117 53.3701 33.8973 53.6697 33.7175C53.6897 34.117 53.7096 34.4965 53.7296 34.8761C53.7496 35.3555 53.7895 35.8548 53.7895 36.3342C53.7895 36.5139 53.8494 36.5739 54.0292 36.5938C55.0877 36.7337 56.1263 36.8934 57.1848 37.0333C57.2647 37.0532 57.3446 37.0533 57.4245 37.0733C57.2447 37.4128 57.005 37.4528 56.6655 37.4128C55.7867 37.273 54.888 37.1531 54.0092 37.0333C53.9493 37.0333 53.9094 37.0333 53.8494 37.0333C53.8494 37.3529 53.8295 37.6525 53.8494 37.9321C53.8494 38.012 53.9293 38.1119 54.0092 38.1918C54.3887 38.5913 54.7682 38.9908 55.1676 39.3903C55.0677 39.4901 54.9879 39.59 54.848 39.7099C54.6483 39.5101 54.4686 39.3304 54.2688 39.1506C54.169 39.0507 54.0691 38.9708 53.9892 38.871C53.6497 38.3117 53.0905 38.3317 52.5113 38.3716Z" fill="#828282"/>
<path d="M49.5573 45.1229C49.8369 45.4025 50.1165 45.6622 50.3961 45.9218C50.2563 46.0617 50.1565 46.1616 50.0566 46.2415C49.7171 45.9019 49.3576 45.5224 48.9981 45.1429C49.3176 44.9631 49.1379 44.7234 49.058 44.4638C48.8183 43.8246 48.4189 43.2853 47.9395 42.8059C47.4203 42.2666 46.861 41.7272 46.3218 41.1879C47.0807 40.4489 47.8397 39.7098 48.6386 38.9508C49.6572 40.0094 50.7157 41.128 51.8142 42.2466C51.974 42.1068 52.0738 42.0269 52.1337 41.967C52.4932 42.3265 52.8527 42.706 53.2322 43.0855C53.1723 43.1454 53.0724 43.2453 52.9127 43.4051C52.653 43.1255 52.4134 42.8258 52.1937 42.5861C51.2749 43.445 50.4161 44.2839 49.5573 45.1229ZM51.4347 42.6261C50.4361 41.5874 49.4574 40.5687 48.5187 39.59C47.9795 40.1093 47.4602 40.6287 46.9209 41.148C47.8996 42.1867 49.078 43.0655 49.5174 44.5236C50.1964 43.8645 50.8355 43.2053 51.4347 42.6261Z" fill="#828282"/>
<path d="M40.6479 77.701C40.9675 77.5412 40.7877 77.2816 40.7078 77.0219C40.4881 76.4427 40.1486 75.9433 39.7092 75.5038C39.13 74.9246 38.5309 74.3453 37.9517 73.7661C38.7506 72.9871 39.5095 72.248 40.3084 71.469C41.327 72.5276 42.4055 73.6462 43.504 74.7648C43.6238 74.6449 43.7236 74.585 43.7836 74.5051C44.1431 74.8846 44.5026 75.2442 44.882 75.6237C44.8022 75.7036 44.7023 75.8034 44.5625 75.9433C44.3028 75.6436 44.0632 75.364 43.8435 75.0843C42.9447 75.9632 42.0859 76.8022 41.2071 77.681C41.5067 77.9407 41.7863 78.2004 42.0859 78.48C41.9261 78.6398 41.8263 78.7197 41.7464 78.8196C41.3669 78.4601 41.0274 78.0805 40.6479 77.701ZM38.5908 73.6861C39.5694 74.7448 40.7678 75.6237 41.1872 77.0219C41.8463 76.3827 42.5053 75.7435 43.1245 75.1443C42.1458 74.1256 41.1472 73.1069 40.1886 72.1282C39.6493 72.6475 39.13 73.1468 38.5908 73.6861Z" fill="#828282"/>
<path d="M41.0464 70.5495C41.1063 70.5095 41.1862 70.4096 41.346 70.2498C42.3646 71.3085 43.3632 72.3672 44.3818 73.4258C44.4217 73.4059 44.4417 73.3859 44.4816 73.3659C44.3818 72.8266 44.2619 72.2873 44.1621 71.7679C43.9224 70.6494 43.7027 69.5508 43.463 68.4322C43.3832 68.0926 43.6228 67.9927 43.8026 67.793C44.9809 69.0114 46.1593 70.2299 47.3177 71.4483C47.3377 71.4283 47.3576 71.4084 47.3776 71.3884C47.2777 71.4883 47.1779 71.5881 47.0181 71.7479C46.0195 70.7093 45.0209 69.6706 44.0223 68.6119C43.9823 68.6319 43.9623 68.6519 43.9224 68.6719C44.0023 69.0913 44.0822 69.5108 44.182 69.9502C44.4417 71.1487 44.6614 72.3672 44.941 73.5656C45.0209 73.9252 44.8012 74.045 44.6015 74.2448C43.4231 73.0063 42.2447 71.8079 41.0464 70.5495Z" fill="#828282"/>
<path d="M65.7752 45.441C66.9535 46.6595 68.1119 47.8579 69.3102 49.0764C69.2304 49.1363 69.1105 49.2362 69.0107 49.3161C69.0107 49.356 68.9907 49.376 68.9907 49.4159C67.9921 48.3573 66.9735 47.3187 65.9749 46.26C65.9549 46.28 65.9349 46.2999 65.895 46.3199C66.0148 46.9191 66.1347 47.5184 66.2545 48.0977C66.4742 49.1164 66.6539 50.1351 66.9136 51.1538C66.9935 51.5133 66.8137 51.6731 66.594 51.8529C65.4356 50.6344 64.2573 49.416 63.0989 48.1975C63.0589 48.2175 63.039 48.2375 62.999 48.2575C63.0989 48.1576 63.2187 48.0577 63.3386 47.9578C64.3571 48.9765 65.3957 50.0152 66.4942 51.0938C66.2146 49.7156 65.9349 48.4172 65.6753 47.1189C65.6154 46.8193 65.5754 46.5197 65.4756 46.24C65.3158 45.9005 65.4157 45.6608 65.7752 45.441Z" fill="#828282"/>
<path d="M33.7197 89.9844C33.7597 89.9445 33.8595 89.8446 34.0193 89.6648C35.0379 90.7435 36.0365 91.7822 37.0551 92.8408C37.0751 92.8208 37.115 92.8008 37.135 92.7809C37.0351 92.2615 36.9353 91.7622 36.8154 91.2428C36.5758 90.1243 36.376 89.0057 36.1164 87.9071C36.0365 87.5476 36.2162 87.3878 36.4559 87.208C37.6343 88.4265 38.8126 89.6449 39.991 90.8633C39.9311 90.9033 39.8312 91.0031 39.7114 91.123C38.6928 90.1043 37.6543 89.0656 36.5558 87.967C36.7755 89.0656 36.9952 90.0643 37.1949 91.083C37.3147 91.6623 37.4146 92.2216 37.5544 92.7809C37.6543 93.1604 37.5943 93.42 37.2348 93.6198C36.0764 92.4413 34.9181 91.2229 33.7197 89.9844Z" fill="#828282"/>
<path d="M48.7353 75.7029C48.8352 76.2222 48.955 76.7416 49.0549 77.2609C49.2945 78.3795 49.5142 79.4781 49.7539 80.5967C49.8338 80.9362 49.6141 81.0561 49.4343 81.2558C48.256 80.0374 47.0976 78.8189 45.9192 77.6005C45.8793 77.6205 45.8393 77.6404 45.8193 77.6604C45.9392 77.5605 46.039 77.4806 46.1988 77.3608C47.1775 78.3795 48.1961 79.4181 49.1947 80.4768C49.2346 80.4568 49.2546 80.4369 49.2945 80.4169C49.2546 80.2371 49.2346 80.0374 49.1947 79.8576C48.8951 78.4394 48.6354 77.0212 48.3159 75.623C48.236 75.2435 48.3558 75.0437 48.6554 74.844C49.8138 76.0425 50.9922 77.2609 52.1905 78.4993C52.1106 78.5593 51.9908 78.6391 51.851 78.739C50.8724 77.7603 49.8538 76.7416 48.8152 75.7029C48.7553 75.6829 48.7353 75.7029 48.7353 75.7029Z" fill="#828282"/>
<path d="M54.5299 63.12C54.4101 62.5208 54.2903 61.9215 54.1505 61.3023C53.9308 60.2836 53.751 59.2649 53.5114 58.2462C53.4315 57.8867 53.6312 57.7469 53.8509 57.5471C55.0293 58.7656 56.1877 59.984 57.386 61.2224C57.3261 61.2624 57.2262 61.3622 57.0465 61.4821C56.0678 60.4634 55.0692 59.4048 54.0506 58.3461C54.0306 58.3661 53.9907 58.386 53.9707 58.406C54.1505 59.2449 54.3302 60.0839 54.49 60.9228C54.6698 61.7418 54.8295 62.5607 55.0093 63.3797C55.0892 63.7192 54.8096 63.7991 54.6498 63.9989C53.4714 62.7804 52.2931 61.562 51.0947 60.3436C51.1546 60.2836 51.2745 60.1838 51.3943 60.0839C52.4129 61.1026 53.4514 62.1412 54.47 63.1599C54.49 63.14 54.51 63.14 54.5299 63.12Z" fill="#828282"/>
<path d="M63.2166 67.1731C62.0582 65.9547 60.8799 64.7563 59.7215 63.5378C59.7015 63.5578 59.6616 63.5578 59.6416 63.5778C59.7415 63.4779 59.8413 63.358 60.0011 63.1982C61.0197 64.2768 62.0383 65.3355 63.0369 66.3941C63.0569 66.3741 63.0768 66.3542 63.1168 66.3342C62.9171 65.3155 62.6974 64.2968 62.4976 63.2781C62.3778 62.6989 62.2779 62.1196 62.1381 61.5404C62.0383 61.1808 62.1182 60.9411 62.4377 60.7614C63.6161 61.9598 64.7745 63.1782 65.9529 64.3967C65.9728 64.3767 65.9928 64.3568 66.0128 64.3368C65.9129 64.4367 65.813 64.5365 65.6533 64.6963C64.6746 63.6776 63.656 62.619 62.6574 61.5603C62.6374 61.5803 62.5975 61.6003 62.5775 61.6203C62.6774 62.0797 62.7772 62.5391 62.8571 63.0185C63.0968 64.137 63.2965 65.2556 63.5562 66.3742C63.6361 66.7537 63.5362 66.9734 63.2166 67.1731Z" fill="#828282"/>
<path d="M37.8328 62.9392C37.9726 63.5984 38.1125 64.2575 38.2323 64.9167C38.412 65.8355 38.5918 66.7344 38.8115 67.6332C38.9113 68.0127 38.8514 68.2724 38.5119 68.4521C37.3535 67.2537 36.1751 66.0353 34.9968 64.8168C34.9568 64.8368 34.9169 64.8368 34.877 64.8567C34.9968 64.7569 35.1166 64.677 35.2764 64.5372C36.255 65.5559 37.2736 66.6145 38.2922 67.6732C38.3122 67.6532 38.3321 67.6332 38.3521 67.6132C38.1724 66.7743 38.0126 65.9354 37.8328 65.0964C37.6531 64.2775 37.4933 63.4386 37.3136 62.6196C37.2337 62.3 37.5133 62.2401 37.6331 62.0204C38.8315 63.2588 39.9898 64.4772 41.1682 65.6957C41.2081 65.6757 41.2481 65.6558 41.2681 65.6358C41.1682 65.7357 41.0484 65.8355 40.9086 65.9753C39.91 64.9367 38.9113 63.878 37.9127 62.8394C37.9127 62.8993 37.8728 62.9193 37.8328 62.9392Z" fill="#828282"/>
<path d="M53.0718 70.2704C53.1117 70.2304 53.2116 70.1306 53.3514 69.9708C54.37 71.0294 55.3886 72.0881 56.3872 73.1267C56.4072 73.1068 56.4471 73.0868 56.4671 73.0668C56.3872 72.7073 56.3273 72.3277 56.2474 71.9682C55.9877 70.7298 55.7481 69.5113 55.4684 68.2729C55.3886 67.9134 55.4684 67.6936 55.808 67.4939C56.9664 68.6924 58.1447 69.9108 59.3031 71.1293C59.2432 71.1692 59.1234 71.2491 59.0035 71.349C59.0035 71.3889 59.0035 71.4289 58.9836 71.4688C57.965 70.4102 56.9664 69.3515 55.9478 68.2929C55.9278 68.3128 55.9078 68.3328 55.8679 68.3528C56.0476 69.1917 56.2074 70.0107 56.3872 70.8496C56.547 71.6086 56.6868 72.3677 56.8665 73.1067C56.9664 73.4663 56.8865 73.726 56.5669 73.9057C55.4285 72.7073 54.2701 71.5088 53.0718 70.2704Z" fill="#828282"/>
<path d="M35.7527 58.4655C35.0937 58.4655 34.5344 58.2059 34.0551 57.7864C33.396 57.2071 32.8967 56.528 32.8767 55.6092C32.8368 54.0712 34.3946 52.8528 35.8326 53.3521C37.011 53.7516 37.8099 54.5705 38.0296 55.8289C38.2293 57.1672 37.0909 58.4655 35.7527 58.4655ZM35.7727 58.086C36.9311 58.0261 37.8698 56.8876 37.5503 55.789C37.2507 54.7503 36.5516 54.0312 35.5331 53.7516C34.2348 53.3721 32.9966 54.6704 33.3561 55.9687C33.5957 56.8076 34.155 57.4069 34.8939 57.8063C35.1735 57.9262 35.4731 57.9861 35.7727 58.086Z" fill="#828282"/>
<path d="M55.7469 74.8436C55.687 74.9035 55.5871 75.0034 55.4673 75.1233C54.8881 74.504 54.3289 73.9248 53.7896 73.3455C53.0307 74.0846 52.3316 74.7837 51.6126 75.5027C52.1918 76.082 52.771 76.6613 53.3502 77.2605C53.2304 77.3803 53.1305 77.5002 53.0306 77.6001C51.8323 76.3816 50.6739 75.1632 49.4756 73.9447C49.5355 73.9048 49.6553 73.8049 49.7951 73.6851C50.2745 74.1844 50.7538 74.7038 51.2132 75.1632C51.9721 74.4441 52.6911 73.745 53.4101 73.0459C52.8908 72.5266 52.3915 72.0072 51.8723 71.4879C52.0121 71.388 52.1319 71.3081 52.2717 71.2083C53.3702 72.3867 54.5486 73.6052 55.7469 74.8436Z" fill="#828282"/>
<path d="M42.1639 52.6532C42.1239 52.6932 42.0241 52.793 41.8843 52.9329C40.7858 51.7943 39.7273 50.6757 38.6488 49.5771C38.0296 50.1963 37.4504 50.7556 36.8912 51.3349C37.2507 51.7144 37.6302 52.0939 37.9897 52.4734C38.4291 52.9328 38.8485 53.3923 39.2679 53.8517C39.4277 54.0315 39.5475 54.2512 39.6673 54.4709C39.907 54.9902 39.8071 55.3098 39.2879 55.6294C39.228 55.5295 39.168 55.4297 39.1081 55.3298C39.4077 54.9503 39.4477 54.8504 39.1081 54.4109C38.7486 53.9316 38.3292 53.4922 37.9298 53.0527C37.4105 52.4934 36.8513 51.9341 36.312 51.3549C37.0909 50.5959 37.9098 49.8168 38.7286 49.0378C39.7872 50.1964 40.9655 51.4148 42.1639 52.6532Z" fill="#828282"/>
<path d="M41.2275 85.4311C40.7082 84.9117 40.2089 84.3924 39.7096 83.873C39.8095 83.7732 39.9293 83.6733 40.0491 83.5535C41.2275 84.7919 42.4059 85.9903 43.5842 87.2288C43.5443 87.2687 43.4444 87.3886 43.2847 87.5484C42.7055 86.9292 42.1462 86.3299 41.607 85.7706C40.848 86.5097 40.149 87.1888 39.43 87.8879C40.0292 88.4872 40.5884 89.0664 41.2076 89.6856C41.0677 89.8055 40.9479 89.9054 40.8281 90.0052C39.6497 88.8068 38.4913 87.5883 37.293 86.3698C37.3529 86.3099 37.4727 86.2101 37.6125 86.0902C38.0919 86.5896 38.5712 87.1089 39.0505 87.6083C39.8095 86.8493 40.5085 86.1501 41.2275 85.4311Z" fill="#828282"/>
<path d="M61.0387 57.506C60.9188 57.6058 60.819 57.6857 60.6592 57.8256C60.1199 57.2463 59.5408 56.6671 59.0015 56.0878C58.2625 56.8069 57.5635 57.506 56.8645 58.2051C57.4437 58.7843 58.0229 59.3636 58.622 59.9628C58.4622 60.0827 58.3424 60.1826 58.2226 60.2824C57.1041 59.1239 55.9258 57.9055 54.7674 56.687C54.7474 56.707 54.7075 56.727 54.6875 56.727C54.7874 56.6271 54.8872 56.5073 55.027 56.3674C55.5463 56.9067 56.0256 57.4261 56.485 57.9254C57.2439 57.1864 57.943 56.4873 58.662 55.7882C58.1627 55.2689 57.6634 54.7695 57.1441 54.2302C57.2439 54.1103 57.3438 54.0105 57.4636 53.8906C58.642 55.129 59.8204 56.3275 60.9987 57.5459C60.9788 57.5459 60.9987 57.5259 61.0387 57.506Z" fill="#828282"/>
<path d="M67.2284 58.9645C66.7091 58.4451 66.2098 57.9258 65.6706 57.4064C65.7904 57.3066 65.8903 57.2067 66.0101 57.1068C67.1885 58.3253 68.3469 59.5437 69.5252 60.7622C69.5652 60.7422 69.5851 60.7222 69.6251 60.7022C69.5252 60.8021 69.4054 60.902 69.2656 61.0218C68.7064 60.4426 68.1471 59.8434 67.6079 59.2841C66.8489 60.0231 66.1299 60.7222 65.4109 61.4213C66.0101 62.0206 66.5693 62.5998 67.1685 63.219C67.0686 63.3189 66.9488 63.3988 66.8489 63.4987C65.6905 62.2802 64.5122 61.0618 63.3338 59.8434C63.3138 59.8633 63.2739 59.9033 63.2539 59.9232C63.3538 59.8234 63.4536 59.7235 63.5934 59.5837C64.0728 60.103 64.5721 60.6223 65.0314 61.1017C65.7904 60.3627 66.5094 59.6636 67.2284 58.9645Z" fill="#828282"/>
<path d="M42.1056 46.1001C41.4865 46.7193 40.9073 47.2786 40.3281 47.8379C40.6676 48.1774 41.0071 48.517 41.3267 48.8566C41.7861 49.336 42.2454 49.7954 42.6648 50.2947C42.8646 50.5344 43.0243 50.814 43.1442 51.1136C43.264 51.3933 43.244 51.6729 43.0044 51.9126C42.7647 52.1523 42.7248 52.1523 42.4851 51.8727C42.8246 51.4532 42.8646 51.3334 42.5051 50.894C41.9858 50.2548 41.4066 49.6755 40.8474 49.0563C40.4679 48.6568 40.0884 48.2573 39.689 47.8578C40.4879 47.0788 41.2867 46.2998 42.0856 45.5009C43.2241 46.6793 44.4024 47.8978 45.5808 49.1162C45.5209 49.1761 45.441 49.276 45.2812 49.4358C44.2227 48.2973 43.1442 47.1787 42.1056 46.1001Z" fill="#828282"/>
<path d="M43.4653 59.8826C44.0045 60.4219 44.4439 60.9013 44.9033 61.3607C45.6023 60.6616 46.3013 59.9625 47.0403 59.2435C47.1402 59.3633 47.2001 59.4632 47.28 59.563C46.4811 60.342 45.6622 61.141 44.8234 61.96C43.7249 60.8214 42.5465 59.603 41.3682 58.3846C42.1271 57.6655 42.926 56.8864 43.7249 56.1074C43.7049 56.0675 43.685 56.0475 43.665 56.0076C43.7449 56.0875 43.8447 56.1674 43.9446 56.2872C43.2456 56.9664 42.5465 57.6255 41.8874 58.2647C42.3867 58.7641 42.8062 59.2035 43.2256 59.643C43.8248 59.0437 44.4239 58.4445 45.0431 57.8053C45.1429 57.9051 45.2428 57.9851 45.3427 58.0849C44.7035 58.6842 44.0844 59.2834 43.4653 59.8826Z" fill="#828282"/>
<path d="M42.9248 44.5635C43.6838 43.8245 44.4627 43.0454 45.2815 42.2465C45.3414 42.3064 45.4014 42.4062 45.5212 42.5261C44.8421 43.1852 44.1431 43.8444 43.484 44.4836C43.9634 44.983 44.3828 45.4224 44.7822 45.8619C45.4014 45.2427 46.0005 44.6434 46.6396 44.0242C46.7195 44.124 46.7994 44.204 46.9193 44.3438C46.3201 44.923 45.701 45.5223 45.1018 46.0816C45.6011 46.6009 46.0804 47.1003 46.5198 47.5597C47.2188 46.8806 47.8979 46.1814 48.6169 45.4823C48.6968 45.5622 48.7967 45.6621 48.8965 45.762C48.0577 46.5809 47.2588 47.3599 46.42 48.1789C45.3015 47.0204 44.1431 45.8219 42.9248 44.5635Z" fill="#828282"/>
<path d="M45.7998 67.7138C45.6999 67.8137 45.62 67.9135 45.5202 68.0134C45.0808 67.6938 44.901 67.1145 45.0808 66.5752C45.3404 65.8362 45.8797 65.3168 46.6186 65.0971C47.4575 64.8374 48.2764 65.5765 48.1765 66.4754C48.1565 66.5752 48.1365 66.6751 48.1365 66.775C48.9954 66.5553 49.4947 66.6951 49.9141 67.2743C50.1937 67.6738 50.2936 68.1133 50.0739 68.5727C49.7144 69.3717 49.1551 69.9709 48.2764 70.1507C47.7571 70.2505 47.3376 70.0508 46.9382 69.6713C47.058 69.5714 47.1579 69.4915 47.2777 69.3916C47.2777 69.3916 47.2977 69.3916 47.3177 69.3916C47.7171 69.6912 48.1365 69.871 48.6159 69.6114C49.1951 69.2918 49.6544 68.8523 49.7343 68.1532C49.8142 67.494 49.0153 66.8948 48.3962 67.1345C48.0567 67.2744 47.7571 67.534 47.4175 67.7737C47.3776 67.7138 47.3177 67.6139 47.2378 67.494C47.3376 67.3742 47.4775 67.2344 47.5973 67.0746C47.9169 66.6152 47.8969 66.1558 47.5174 65.7762C47.1978 65.4367 46.7385 65.3967 46.2991 65.6963C46.0794 65.8361 45.8797 66.016 45.7399 66.2357C45.4203 66.6751 45.3005 67.0546 45.7998 67.7138Z" fill="#828282"/>
<path d="M31.2029 92.9815C31.7022 93.5008 32.1216 93.9203 32.521 94.3597C33.1402 93.7605 33.7593 93.1413 34.3785 92.5221C34.4783 92.6219 34.5582 92.7018 34.6581 92.8217C34.019 93.4209 33.3998 94.0202 32.8206 94.5994C33.3399 95.1188 33.7993 95.5981 34.2387 96.0575C34.9177 95.3784 35.6167 94.6793 36.3358 93.9602C36.4356 94.0801 36.5155 94.18 36.5954 94.2798C35.7765 95.0788 34.9776 95.8578 34.1588 96.6568C33.0403 95.4983 31.8819 94.2998 30.6836 93.0614C31.4026 92.3623 32.2215 91.5833 33.0204 90.8043C33.0004 90.7843 33.0004 90.7443 32.9804 90.7244C33.0603 90.8242 33.1202 90.9041 33.2201 91.024C32.581 91.6632 31.8819 92.3423 31.2029 92.9815Z" fill="#828282"/>
<path d="M44.3838 55.2491C44.4637 55.1692 44.5436 55.0693 44.6834 54.9295C45.2626 55.5487 45.8418 56.148 46.401 56.7472C46.4409 56.7272 46.4609 56.7072 46.5009 56.7072C46.5009 56.6074 46.5009 56.5075 46.5009 56.4076C46.4809 55.4289 46.5008 54.4501 46.4409 53.4714C46.421 53.1118 46.6207 52.9321 46.9003 52.6924C46.9003 53.3116 46.9003 53.8909 46.9003 54.4501C46.9003 54.7298 46.9203 54.9894 46.9003 55.2691C46.8803 55.4888 46.9602 55.5487 47.1799 55.5887C48.2584 55.7085 49.3169 55.8484 50.3954 55.9882C50.4953 56.0082 50.5952 56.0281 50.695 56.0481C50.5153 56.3477 50.3156 56.4676 49.9561 56.4276C49.0174 56.2878 48.0787 56.168 47.14 56.0481C47.0601 56.0481 47.0002 56.0481 46.9003 56.0481C46.9003 56.4077 46.9003 56.7672 46.9003 57.1067C46.9003 57.1866 47.0002 57.2665 47.0601 57.3265C47.4595 57.726 47.859 58.1454 48.2784 58.5849C48.1585 58.6847 48.0587 58.7846 47.9189 58.8845C46.7605 57.686 45.5821 56.4676 44.3838 55.2491Z" fill="#828282"/>
<path d="M31.1606 59.7038C31.1606 60.0633 31.1606 60.4229 31.1606 60.7824C31.1606 60.8623 31.2605 60.9422 31.3204 61.0021C31.7198 61.4016 32.1193 61.8211 32.5187 62.2406C32.4189 62.3404 32.299 62.4403 32.1792 62.5801C31.0208 61.3817 29.8424 60.1632 28.6641 58.9248C28.724 58.8848 28.8438 58.805 29.0036 58.6851C29.5229 59.2244 30.0821 59.8236 30.6613 60.4229C30.7012 60.4029 30.7212 60.3829 30.7611 60.3629C30.7611 60.283 30.7611 60.1832 30.7611 60.1033C30.7412 59.1445 30.7412 58.2057 30.7212 57.247C30.7212 56.7676 30.7212 56.7676 31.1606 56.3881C31.1606 57.3468 31.1606 58.2856 31.1606 59.2244C32.4388 59.3842 33.6971 59.544 34.9354 59.7038C34.8155 60.0234 34.6557 60.1233 34.3362 60.0833C33.3376 59.9635 32.3589 59.8236 31.3803 59.7038C31.3204 59.7238 31.2605 59.7238 31.1606 59.7038Z" fill="#828282"/>
<path d="M59.9808 46.661C58.7825 45.4223 57.6041 44.2035 56.4058 42.9848C56.4857 42.9049 56.5855 42.805 56.7253 42.6652C57.2446 43.2246 57.7639 43.744 58.2832 44.3234C58.6027 43.9837 58.8624 43.6641 59.1819 43.4044C59.5015 43.1447 59.841 42.8849 60.2005 42.7451C60.7398 42.5253 61.1792 42.825 61.5387 43.2245C61.8982 43.6241 62.018 44.0637 61.7983 44.5831C61.7384 44.743 61.6385 44.9028 61.5187 45.0427C61.0393 45.5621 60.5201 46.1016 59.9808 46.661ZM60.0607 46.0216C60.4402 45.6021 60.8596 45.1825 61.2191 44.743C61.5786 44.3034 61.5387 43.9238 61.1592 43.5043C60.7398 43.0647 60.3803 42.9848 59.9209 43.3244C59.4416 43.6841 59.0221 44.1236 58.5828 44.5232C59.102 45.0426 59.5614 45.5022 60.0607 46.0216Z" fill="#828282"/>
<path d="M28.7855 78.3796C28.5459 77.8602 28.3262 77.3209 28.1065 76.8016C27.6271 75.703 27.1478 74.6244 26.6685 73.5259C26.6085 73.3661 26.6285 73.2861 26.7484 73.1863C26.8682 73.0864 26.9281 72.9266 27.1478 73.0265C28.7456 73.7456 30.3234 74.4446 32.0011 75.1837C31.8413 75.2835 31.7015 75.3435 31.5018 75.4633C31.1822 75.3235 30.7428 75.1238 30.3234 74.9041C30.1636 74.8242 30.0438 74.8242 29.9239 74.964C29.5045 75.4234 29.0452 75.8628 28.6058 76.3023C28.4859 76.4221 28.466 76.522 28.5459 76.6618C28.7056 77.0014 28.8654 77.3409 29.0252 77.6805C29.165 78.0999 29.165 78.0999 28.7855 78.3796ZM27.1278 73.5059C27.1079 73.5258 27.1079 73.5458 27.0879 73.5658C27.4674 74.4047 27.8468 75.2236 28.2063 76.0026C28.6657 75.5432 29.1251 75.1038 29.6044 74.6444C28.7855 74.2649 27.9667 73.8854 27.1278 73.5059Z" fill="#828282"/>
<path d="M28.8638 71.03C29.383 70.5306 29.9023 69.9513 30.5015 69.472C31.3403 68.8128 32.4788 69.2722 32.7184 70.3309C32.7983 70.7304 32.6785 71.1098 32.4388 71.4095C32.1592 71.769 31.8197 72.1086 31.5001 72.4481C31.4003 72.548 31.2804 72.6479 31.1606 72.7278C31.7198 73.2871 32.2391 73.8263 32.7784 74.3457C32.6385 74.4655 32.5387 74.5654 32.3989 74.6653C31.2405 73.4868 30.0821 72.2684 28.8638 71.03ZM30.9009 72.508C31.3204 72.0287 31.7598 71.5892 32.1193 71.1098C32.4388 70.6904 32.339 70.2909 31.9395 69.9114C31.5401 69.5119 31.1806 69.452 30.7811 69.7915C30.3218 70.171 29.8824 70.6105 29.4629 70.99C29.9423 71.5093 30.4016 71.9887 30.9009 72.508Z" fill="#828282"/>
<path d="M72.0837 58.2052C71.5844 57.0866 71.1051 55.9881 70.6257 54.8895C70.406 54.3701 70.1863 53.8508 69.9467 53.3515C69.8668 53.1717 69.9467 53.0918 70.0465 52.9919C70.1464 52.892 70.2263 52.7722 70.426 52.872C71.9838 53.5711 73.5617 54.2702 75.1195 54.9694C75.1395 54.9893 75.1595 54.9893 75.1794 55.0093C74.9398 55.3888 74.9398 55.3888 74.5603 55.209C74.2208 55.0492 73.8812 54.9095 73.5417 54.7497C73.3819 54.6698 73.302 54.7097 73.1822 54.8295C72.7428 55.289 72.3034 55.7284 71.864 56.1678C71.7242 56.2877 71.7242 56.4075 71.8041 56.5474C71.9639 56.867 72.1037 57.2065 72.2635 57.5461C72.4432 57.9056 72.4432 57.9056 72.0837 58.2052ZM70.446 53.3315C70.426 53.3514 70.406 53.3714 70.3861 53.3714C70.7655 54.2103 71.145 55.0493 71.5245 55.8283C72.0038 55.3689 72.4632 54.9294 72.9425 54.45C72.1037 54.0705 71.2649 53.691 70.446 53.3315Z" fill="#828282"/>
<path d="M64.654 53.7908C64.3943 54.1703 64.3943 54.1703 63.9949 53.9905C63.6554 53.8307 63.2959 53.6709 62.9563 53.5111C62.8764 53.4712 62.7366 53.5112 62.6767 53.5511C62.1974 54.0105 61.738 54.4899 61.2787 54.9692C61.2188 55.0292 61.1988 55.169 61.2387 55.2489C61.3785 55.5885 61.5383 55.928 61.6981 56.2676C61.8778 56.6671 61.8778 56.6671 61.5183 56.9667C61.4784 56.8868 61.4384 56.8269 61.3985 56.747C60.7394 55.2289 60.0604 53.6909 59.3813 52.1729C59.2815 51.9531 59.4013 51.8533 59.5011 51.7334C59.621 51.5936 59.7208 51.5737 59.8806 51.6535C61.3785 52.3327 62.8964 52.9918 64.3943 53.6709C64.4942 53.7109 64.5741 53.7508 64.654 53.7908ZM60.9391 54.6097C61.3985 54.1503 61.8778 53.7109 62.3572 53.2315C61.5183 52.852 60.6995 52.4725 59.7808 52.053C60.2002 52.9719 60.5796 53.8107 60.9391 54.6097Z" fill="#828282"/>
<path d="M50.9955 67.6932C50.2765 66.0553 49.5574 64.4373 48.8584 62.7995C48.8185 62.7196 48.8984 62.5797 48.9583 62.4998C49.0382 62.4199 49.2179 62.3001 49.2778 62.3401C50.8756 63.0392 52.4734 63.7583 54.0712 64.4773C54.0712 64.4773 54.0712 64.4973 54.0912 64.4973C53.8515 64.8568 53.8515 64.8568 53.492 64.697C53.1325 64.5372 52.793 64.3575 52.4135 64.2177C52.3336 64.1777 52.1938 64.2176 52.1339 64.2576C51.6545 64.717 51.1952 65.1964 50.7358 65.6758C50.6759 65.7357 50.6559 65.8755 50.6959 65.9554C50.8357 66.295 50.9955 66.6345 51.1552 66.9741C51.3749 67.3936 51.3749 67.3935 50.9955 67.6932ZM51.8543 63.938C51.0154 63.5585 50.1766 63.179 49.2778 62.7595C49.6972 63.6783 50.0767 64.4973 50.4562 65.3162C50.9156 64.8768 51.3749 64.4174 51.8543 63.938Z" fill="#828282"/>
<path d="M55.627 47.7784C56.2062 48.3576 56.7055 48.877 57.2448 49.4163C57.1249 49.5161 57.0051 49.596 56.8653 49.6759C55.7468 48.5174 54.5685 47.299 53.3701 46.0406C53.8694 45.5613 54.4087 44.982 55.0278 44.4826C55.607 44.0033 56.2062 44.0832 56.7455 44.5825C57.2847 45.1018 57.3846 45.7011 56.9851 46.3203C56.8054 46.6199 56.5457 46.8796 56.3061 47.1392C56.1063 47.3789 55.8667 47.5587 55.627 47.7784ZM55.4073 47.5387C55.8068 47.0793 56.2262 46.6598 56.5857 46.1805C56.9252 45.741 56.8453 45.3416 56.4459 44.9621C56.0265 44.5626 55.6669 44.5027 55.2275 44.8622C54.7682 45.2417 54.3687 45.6611 53.9493 46.0406C54.4486 46.56 54.908 47.0394 55.4073 47.5387Z" fill="#828282"/>
<path d="M58.9418 68.3524C59.4611 68.8917 59.9804 69.4111 60.5396 69.9704C60.4198 70.0702 60.2999 70.1701 60.1801 70.27C59.0217 69.0715 57.8433 67.853 56.625 66.6146C57.1643 66.0952 57.7235 65.516 58.3426 64.9966C58.7421 64.657 59.2214 64.5971 59.7007 64.8967C60.1801 65.1964 60.5396 65.5959 60.4996 66.2151C60.4797 66.6146 60.28 66.9342 60.0403 67.2138C59.6808 67.5933 59.3213 67.9729 58.9418 68.3524ZM58.6822 68.0728C58.822 67.913 58.9817 67.7532 59.1215 67.5734C59.4012 67.2538 59.7007 66.9542 59.9204 66.6146C60.1801 66.2351 60.0802 65.8355 59.7007 65.496C59.3213 65.1364 58.9418 65.0565 58.5823 65.3562C58.103 65.7357 57.6636 66.1951 57.2242 66.5946C57.7235 67.094 58.1829 67.5534 58.6822 68.0728Z" fill="#828282"/>
<path d="M31.6406 68.2529C31.8204 67.9933 31.9802 67.8335 32.3397 67.9134C33.0387 68.0932 33.7377 68.213 34.4767 68.3728C34.4767 68.2729 34.4567 68.213 34.4567 68.1531C34.3169 67.5139 34.217 66.8548 34.0373 66.2356C33.9374 65.876 34.0772 65.6962 34.3568 65.4965C34.5166 66.2954 34.6764 67.0744 34.8162 67.8534C34.9161 68.4127 34.9161 68.4128 35.4953 68.5326C36.2742 68.6724 37.0531 68.8322 37.832 68.992C37.8919 69.012 37.9319 69.0319 37.9918 69.0519C37.832 69.3715 37.5924 69.4514 37.2528 69.3515C36.5338 69.1718 35.7949 69.0519 35.0159 68.8921C35.1158 69.3715 35.1957 69.811 35.2955 70.2304C35.3555 70.55 35.4154 70.8696 35.4953 71.1692C35.5951 71.5088 35.4953 71.7285 35.1757 71.8883C34.996 71.0493 34.8362 70.1905 34.6764 69.3515C34.5765 68.8322 34.5765 68.8122 34.0573 68.7124C33.2584 68.5526 32.4795 68.4127 31.6406 68.2529Z" fill="#828282"/>
<path d="M52.9117 46.6001C53.3112 47.5788 53.6906 48.5376 54.0701 49.4964C54.3098 50.0956 54.5495 50.6948 54.7692 51.314C54.9689 51.8933 54.8091 52.2928 54.2698 52.5924C54.19 52.5125 54.1101 52.4326 54.0302 52.3327C54.2698 52.113 54.5095 51.8933 54.3697 51.5338C54.3098 51.354 54.2299 51.2541 54.0502 51.1942C52.7919 50.6749 51.5536 50.1555 50.3153 49.6362C50.2354 49.5962 50.1555 49.5563 50.0557 49.5163C50.3353 49.1368 50.3353 49.1368 50.7148 49.2966C51.7134 49.7161 52.732 50.1356 53.7306 50.555C53.8105 50.595 53.8904 50.6149 54.0302 50.6748C53.9902 50.535 53.9503 50.4551 53.9303 50.3752C53.5109 49.3565 53.1114 48.3379 52.692 47.3391C52.5322 46.9197 52.5322 46.9197 52.9117 46.6001Z" fill="#828282"/>
<path d="M38.4944 61.8612C38.3746 61.7414 38.2947 61.6615 38.1948 61.5616C39.0936 60.6828 39.9524 59.8239 40.8511 58.965C40.8911 59.0049 40.971 59.0848 41.0908 59.1847C40.6914 59.5642 40.3119 59.9237 39.9524 60.2633C41.0908 61.4418 42.1893 62.5404 43.2878 63.6789C43.1679 63.7788 43.0681 63.8786 42.9283 63.9985C41.8697 62.8799 40.7912 61.7614 39.7127 60.6628C39.2534 61.1022 38.8939 61.4618 38.4944 61.8612Z" fill="#828282"/>
<path d="M52.3909 54.3709C52.2711 54.5107 52.1712 54.6106 52.0514 54.7504C50.9529 53.6119 49.8744 52.4933 48.8158 51.3947C48.3964 51.8342 48.0169 52.1937 47.6375 52.5932C47.5176 52.4733 47.4378 52.3935 47.3379 52.2936C48.2366 51.4347 49.1154 50.5758 49.9942 49.7368C49.9742 49.6969 49.9742 49.6769 49.9543 49.637C50.0142 49.7368 50.0941 49.8567 50.174 49.9965C49.8344 50.3161 49.455 50.6756 49.0955 50.9952C50.2139 52.1138 51.2924 53.2324 52.3909 54.3709Z" fill="#828282"/>
<path d="M69.1274 53.9906C69.1674 54.0505 69.2473 54.1304 69.3471 54.2503C68.728 54.8895 68.0889 55.5286 67.4697 56.1678C68.5682 57.2864 69.6467 58.405 70.7652 59.5435C70.6453 59.6434 70.5455 59.7432 70.4056 59.8631C69.2273 58.6446 68.0489 57.4262 66.8506 56.2077C67.5896 55.4887 68.3485 54.7496 69.1274 53.9906Z" fill="#828282"/>
<path d="M63.4372 43.1254C63.3174 43.2053 63.1976 43.3052 63.0778 43.4051C61.9396 42.2266 60.7615 41.0281 59.5635 39.7897C59.6234 39.7298 59.7032 39.6299 59.8231 39.4901C61.0011 40.7285 62.1792 41.947 63.3373 43.1654C63.3972 43.1455 63.4172 43.1454 63.4372 43.1254Z" fill="#828282"/>
<path d="M52.4313 57.7059C52.5112 57.7858 52.5711 57.8657 52.631 57.9257C52.2117 58.3451 51.8123 58.7446 51.393 59.1841C51.3531 59.1441 51.2532 59.0443 51.1733 58.9843C51.5927 58.5649 51.992 58.1454 52.4313 57.7059Z" fill="#828282"/>
</svg>
