<svg xmlns="http://www.w3.org/2000/svg" version="1.1" xmlns:xlink="http://www.w3.org/1999/xlink" xmlns:svgjs="http://svgjs.com/svgjs" width="500" height="500"><svg width="500" height="500" viewBox="0 0 500 500" fill="none" xmlns="http://www.w3.org/2000/svg">
<rect width="500" height="500" fill="white"></rect>
<path d="M425.943 292.577C428.667 289.862 430.197 286.179 430.197 282.34V224.431C430.197 220.592 428.667 216.909 425.943 214.194C423.219 211.479 419.525 209.954 415.673 209.954C411.821 209.954 408.127 211.479 405.403 214.194C402.679 216.909 401.149 220.592 401.149 224.431V282.34C401.149 286.179 402.679 289.862 405.403 292.577C408.127 295.292 411.821 296.817 415.673 296.817C419.525 296.817 423.219 295.292 425.943 292.577Z" fill="#363B3E"></path>
<path d="M293.671 319.98H345.957C356.127 319.98 365.88 317.052 373.07 311.839C380.261 306.626 384.301 299.556 384.301 292.184V208.796C384.301 201.424 380.261 194.354 373.07 189.141C365.88 183.928 356.127 181 345.957 181H154.24C144.07 181 134.317 183.928 127.127 189.141C119.936 194.354 115.896 201.424 115.896 208.796V292.184C115.896 299.556 119.936 306.626 127.127 311.839C134.317 317.052 144.07 319.98 154.24 319.98H206.526C206.526 316.141 208.057 312.458 210.78 309.743C213.504 307.028 217.198 305.503 221.05 305.503H279.147C282.999 305.503 286.693 307.028 289.417 309.743C292.14 312.458 293.671 316.141 293.671 319.98Z" fill="#363B3E"></path>
<path d="M94.7941 292.577C97.5179 289.862 99.0481 286.179 99.0481 282.34V224.431C99.0481 220.592 97.5179 216.909 94.7941 214.194C92.0704 211.479 88.3761 209.954 84.5241 209.954C80.672 209.954 76.9778 211.479 74.254 214.194C71.5302 216.909 70 220.592 70 224.431V282.34C70 286.179 71.5302 289.862 74.254 292.577C76.9778 295.292 80.672 296.817 84.5241 296.817C88.3761 296.817 92.0704 295.292 94.7941 292.577Z" fill="#363B3E"></path>
</svg><style>@media (prefers-color-scheme: light) { :root { filter: none; } }
</style></svg>