<?xml version="1.0" standalone="no"?>
<!DOCTYPE svg PUBLIC "-//W3C//DTD SVG 20010904//EN"
 "http://www.w3.org/TR/2001/REC-SVG-20010904/DTD/svg10.dtd">
<svg version="1.0" xmlns="http://www.w3.org/2000/svg"
 width="700.000000pt" height="700.000000pt" viewBox="0 0 700.000000 700.000000"
 preserveAspectRatio="xMidYMid meet">
<metadata>
Created by potrace 1.14, written by Peter Selinger 2001-2017
</metadata>
<g transform="translate(0.000000,700.000000) scale(0.100000,-0.100000)"
fill="#000000" stroke="none">
<path d="M2074 4460 c-198 -27 -355 -123 -422 -259 l-27 -56 0 -650 0 -650 27
-58 c51 -109 171 -199 323 -244 52 -15 118 -17 485 -21 l426 -3 12 48 c17 63
52 106 105 132 42 20 56 21 498 21 420 0 457 -2 494 -19 22 -10 50 -29 62 -42
26 -28 53 -89 53 -119 l0 -21 433 3 432 4 81 27 c140 47 251 134 298 236 21
46 21 53 21 706 l0 660 -28 54 c-57 107 -177 193 -332 238 -56 16 -162 18
-1470 19 -775 1 -1438 -2 -1471 -6z"/>
<path d="M1111 4046 c-48 -17 -105 -77 -119 -124 -8 -28 -12 -169 -12 -476 0
-371 2 -442 15 -474 33 -78 104 -123 192 -123 72 0 137 38 173 101 l25 45 3
425 c2 296 0 441 -8 478 -27 122 -152 191 -269 148z"/>
<path d="M5740 4045 c-46 -21 -78 -51 -101 -98 -19 -36 -19 -60 -17 -505 l3
-468 24 -36 c90 -131 279 -118 352 24 18 35 19 64 19 490 0 451 0 454 -22 498
-46 91 -168 135 -258 95z"/>
</g>
</svg>
