<svg width="99" height="48" viewBox="0 0 99 48" fill="none" xmlns="http://www.w3.org/2000/svg">
<path d="M43.4267 12.3076V21.4196C43.4267 21.7534 43.3209 22.072 43.1244 22.3452L26.539 44.9467C25.4509 46.4262 23.7432 47.3442 21.9676 47.3973C21.9071 47.3973 21.8467 47.3973 21.7862 47.3973C21.7258 47.3973 21.6653 47.3973 21.6049 47.3973C19.8292 47.3442 18.1215 46.4262 17.0335 44.9467L0.455561 22.3452C0.259105 22.072 0.15332 21.7534 0.15332 21.4196V12.3076C0.15332 11.4503 0.848475 10.7523 1.70231 10.7523H17.8193V13.863H3.25129V20.9112L19.6403 43.2472C20.1315 43.9225 20.8719 44.3246 21.6653 44.3549C21.7484 44.3549 21.8316 44.3549 21.9147 44.3549C22.7081 44.3246 23.441 43.9149 23.9397 43.2472L40.3287 20.9112V13.863H25.7531V10.7523H41.8701C42.7315 10.7523 43.4267 11.4503 43.4267 12.3076Z" fill="white"/>
<path d="M5.54153 2.2244C5.57931 0.987732 6.62204 0.0166016 7.86123 0.0166016H35.5692C36.8008 0.0166016 37.8435 0.987732 37.8813 2.2244C37.9191 3.51419 36.8915 4.56877 35.6145 4.56877H24.0085V21.8291V21.9657C24.0085 22.7547 24.0009 24.1886 24.7112 25.4253C25.3005 26.4571 26.6153 26.7985 27.6354 26.1992C27.9678 26.0019 28.3456 25.7667 28.7839 25.4784C30.212 24.5452 31.8214 23.483 33.6122 23.483H33.6348L36.6044 23.4982L23.404 41.4869C23.0262 42.0028 22.4292 42.3063 21.7945 42.3063H21.787C21.1523 42.3063 20.5554 42.0028 20.1776 41.4945L7.96701 24.9701L9.68979 24.1962C13.3545 22.5574 16.3466 21.9201 18.8477 22.2464C18.9081 22.254 18.9686 22.2615 19.0215 22.2691C19.0668 22.087 19.0895 21.905 19.0895 21.7229V4.56877H7.80834C6.53893 4.56877 5.50375 3.5066 5.54153 2.2244Z" fill="white"/>
<path d="M68.1719 11.6697C68.3986 12.0036 68.5346 12.3981 68.5346 12.8306V44.8854C68.5346 46.0235 67.6128 46.9491 66.4794 46.9491H66.4189C65.2855 46.9491 64.3637 46.0235 64.3637 44.8854V14.9246H51.2842V44.9461C51.2842 46.0842 50.3624 47.0098 49.229 47.0098H49.1761C48.0427 47.0098 47.1208 46.0842 47.1208 44.9461V12.8912C47.1208 12.0643 47.6044 11.3511 48.3071 11.0173C48.6094 10.8428 48.957 10.7441 49.3272 10.7441H66.4567C67.1745 10.7441 67.8017 11.1159 68.1719 11.6697Z" fill="white"/>
<path d="M98.8738 44.2864L87.3508 12.2846C87.3206 12.2087 87.2904 12.1329 87.2601 12.0646C87.1997 11.8673 87.1166 11.6852 86.9957 11.5183C86.6406 11.01 86.0663 10.7217 85.424 10.7217C85.3787 10.7217 85.3334 10.7217 85.288 10.7293C85.2427 10.7293 85.1974 10.7217 85.152 10.7217C84.5098 10.7217 83.9355 11.0176 83.5804 11.5259C83.4595 11.6928 83.3763 11.8825 83.3159 12.0722C83.2781 12.1404 83.2479 12.2163 83.2252 12.2922L71.7023 44.2864C71.4756 44.9161 71.5512 45.5761 71.9139 46.092C72.269 46.6004 72.8432 46.8887 73.4855 46.8887C74.43 46.8887 75.3518 46.2286 75.6843 45.3182L79.5908 34.4688H90.9853L94.8917 45.3182C95.2166 46.2286 96.146 46.8887 97.0905 46.8887C97.7328 46.8887 98.3071 46.6004 98.6622 46.092C99.0173 45.5761 99.1004 44.9161 98.8738 44.2864ZM81.0944 30.296L85.288 18.65L89.4816 30.296H81.0944Z" fill="white"/>
</svg>
